<svg xmlns="http://www.w3.org/2000/svg" xmlns:xlink="http://www.w3.org/1999/xlink" width="500" zoomAndPan="magnify" viewBox="0 0 375 374.999991" height="500" preserveAspectRatio="xMidYMid meet" version="1.0"><defs><g/><clipPath id="cc22ac278a"><path d="M 44.265625 203.148438 L 330.730469 203.148438 L 330.730469 270.015625 L 44.265625 270.015625 Z M 44.265625 203.148438 " clip-rule="nonzero"/></clipPath><clipPath id="97809e5610"><path d="M 167 30.015625 L 206 30.015625 L 206 69 L 167 69 Z M 167 30.015625 " clip-rule="nonzero"/></clipPath><clipPath id="69afddeeca"><path d="M 155.761719 118.496094 L 219.511719 118.496094 L 219.511719 181.496094 L 155.761719 181.496094 Z M 155.761719 118.496094 " clip-rule="nonzero"/></clipPath></defs><rect x="-37.5" width="450" fill="#ffffff" y="-37.499999" height="449.999989" fill-opacity="1"/><rect x="-37.5" width="450" fill="#144d45" y="-37.499999" height="449.999989" fill-opacity="1"/><path fill="#ffd887" d="M 187.496094 203.246094 C 141.738281 170.351562 105.085938 198.589844 105.085938 198.589844 C 153.1875 193.9375 187.496094 228.273438 187.496094 228.273438 C 187.496094 228.273438 221.804688 193.9375 269.90625 198.589844 C 269.90625 198.589844 233.253906 170.351562 187.496094 203.246094 " fill-opacity="1" fill-rule="nonzero"/><g clip-path="url(#cc22ac278a)"><path fill="#ffd887" d="M 313.441406 215.90625 L 308.695312 213.40625 C 308.695312 213.40625 252.382812 207.863281 219.9375 231.125 C 219.9375 231.125 245.734375 209.390625 306.765625 210.214844 C 308.46875 210.242188 285.421875 205.558594 285.421875 205.558594 L 290.382812 203.183594 C 290.382812 203.183594 218.980469 201.320312 187.496094 252.835938 C 156.011719 201.320312 84.605469 203.183594 84.605469 203.183594 L 89.570312 205.558594 C 89.570312 205.558594 66.523438 210.242188 68.226562 210.214844 C 129.257812 209.390625 155.050781 231.125 155.050781 231.125 C 122.609375 207.863281 66.296875 213.40625 66.296875 213.40625 L 61.550781 215.90625 L 44.265625 222.734375 C 101.675781 209.699219 166.84375 237.941406 172.121094 254.386719 C 177.394531 270.835938 187.496094 270.214844 187.496094 270.214844 C 187.496094 270.214844 197.597656 270.835938 202.871094 254.386719 C 208.148438 237.941406 273.316406 209.699219 330.730469 222.734375 L 313.441406 215.90625 " fill-opacity="1" fill-rule="nonzero"/></g><path fill="#ffd887" d="M 288.367188 172.925781 C 288.34375 172.027344 287.992188 163.882812 283.128906 155.496094 C 278.988281 148.355469 270.9375 139.890625 255.605469 137.648438 C 251.097656 126.109375 238.570312 101.042969 213.359375 95.734375 C 207.058594 94.410156 202.25 91.6875 198.582031 88.492188 C 189.835938 80.882812 187.617188 70.578125 187.496094 69.96875 C 187.371094 70.578125 185.152344 80.882812 176.410156 88.492188 C 172.742188 91.6875 167.933594 94.410156 161.632812 95.734375 C 136.417969 101.042969 123.894531 126.109375 119.386719 137.648438 C 104.054688 139.890625 96 148.355469 91.863281 155.496094 C 87 163.882812 86.648438 172.027344 86.625 172.925781 L 86.625 190.390625 L 104.011719 190.390625 L 104.011719 173.382812 C 104.0625 172.6875 104.488281 168.113281 107.195312 163.738281 C 110.851562 157.820312 117.015625 154.796875 126.039062 154.492188 L 132.382812 154.28125 L 134.113281 148.175781 C 134.199219 147.871094 143.429688 117.335938 165.214844 112.75 C 174.691406 110.757812 181.953125 106.730469 187.496094 101.984375 C 193.039062 106.730469 200.300781 110.757812 209.777344 112.75 C 231.558594 117.335938 240.792969 147.871094 240.878906 148.175781 L 242.609375 154.28125 L 248.953125 154.492188 C 257.976562 154.796875 264.140625 157.820312 267.796875 163.738281 C 270.503906 168.113281 270.929688 172.6875 270.980469 173.382812 L 270.980469 190.390625 L 288.367188 190.390625 L 288.367188 172.925781 " fill-opacity="1" fill-rule="nonzero"/><g clip-path="url(#97809e5610)"><path fill="#ffd887" d="M 187.496094 68.785156 C 195.664062 68.785156 202.695312 63.957031 205.914062 57.003906 C 202.417969 60.96875 197.304688 63.472656 191.601562 63.472656 C 181.066406 63.472656 172.523438 54.929688 172.523438 44.394531 C 172.523438 38.691406 175.027344 33.578125 178.992188 30.082031 C 172.035156 33.296875 167.207031 40.332031 167.207031 48.5 C 167.207031 59.703125 176.289062 68.785156 187.496094 68.785156 " fill-opacity="1" fill-rule="nonzero"/></g><path fill="#ffd887" d="M 187.496094 35.589844 L 190.164062 43.800781 L 198.796875 43.800781 L 191.8125 48.878906 L 194.480469 57.089844 L 187.496094 52.015625 L 180.511719 57.089844 L 183.179688 48.878906 L 176.191406 43.800781 L 184.828125 43.800781 L 187.496094 35.589844 " fill-opacity="1" fill-rule="nonzero"/><g clip-path="url(#69afddeeca)"><path fill="#ffd887" d="M 218.738281 149.195312 C 215.988281 145.761719 212.441406 143.148438 208.40625 141.554688 C 210.136719 137.570312 210.792969 133.207031 210.308594 128.835938 C 210.226562 128.082031 209.628906 127.484375 208.871094 127.402344 C 204.503906 126.917969 200.144531 127.574219 196.152344 129.304688 C 194.5625 125.265625 191.945312 121.71875 188.511719 118.96875 C 187.917969 118.492188 187.074219 118.492188 186.480469 118.96875 C 183.046875 121.71875 180.429688 125.265625 178.839844 129.304688 C 174.851562 127.574219 170.492188 126.917969 166.121094 127.398438 C 165.363281 127.484375 164.769531 128.078125 164.683594 128.835938 C 164.203125 133.207031 164.859375 137.5625 166.589844 141.554688 C 162.550781 143.144531 159.003906 145.761719 156.253906 149.195312 C 155.777344 149.789062 155.777344 150.636719 156.253906 151.226562 C 159.003906 154.664062 162.550781 157.277344 166.585938 158.867188 C 164.855469 162.855469 164.199219 167.214844 164.683594 171.585938 C 164.769531 172.34375 165.363281 172.941406 166.121094 173.023438 C 167.050781 173.128906 167.984375 173.179688 168.914062 173.179688 C 172.332031 173.179688 175.699219 172.476562 178.835938 171.113281 C 180.425781 175.15625 183.042969 178.703125 186.480469 181.457031 C 186.777344 181.695312 187.136719 181.8125 187.496094 181.8125 C 187.855469 181.8125 188.214844 181.691406 188.511719 181.457031 C 191.949219 178.703125 194.566406 175.15625 196.15625 171.113281 C 199.292969 172.476562 202.65625 173.179688 206.078125 173.179688 C 207.007812 173.179688 207.9375 173.128906 208.871094 173.023438 C 209.625 172.941406 210.226562 172.34375 210.308594 171.585938 C 210.792969 167.21875 210.136719 162.859375 208.40625 158.867188 C 212.441406 157.277344 215.988281 154.664062 218.738281 151.226562 C 219.214844 150.632812 219.214844 149.789062 218.738281 149.195312 Z M 190.714844 163.542969 C 190.300781 163.128906 189.910156 162.707031 189.542969 162.273438 C 189.570312 162.234375 189.59375 162.191406 189.621094 162.152344 C 189.875 161.777344 190.113281 161.398438 190.347656 161.011719 C 190.414062 160.898438 190.484375 160.785156 190.550781 160.667969 C 190.804688 160.230469 191.050781 159.785156 191.277344 159.332031 C 191.757812 159.492188 192.246094 159.628906 192.734375 159.761719 C 192.863281 159.796875 192.996094 159.828125 193.125 159.863281 C 193.558594 159.96875 193.992188 160.066406 194.429688 160.152344 C 194.480469 160.164062 194.53125 160.175781 194.582031 160.1875 C 194.628906 160.761719 194.648438 161.339844 194.648438 161.914062 C 194.648438 163.410156 194.484375 164.894531 194.183594 166.351562 C 192.9375 165.535156 191.769531 164.601562 190.714844 163.542969 Z M 185.449219 162.277344 C 185.082031 162.707031 184.691406 163.132812 184.28125 163.542969 C 183.222656 164.601562 182.054688 165.535156 180.8125 166.355469 C 180.507812 164.898438 180.34375 163.414062 180.34375 161.917969 C 180.34375 161.34375 180.367188 160.765625 180.410156 160.1875 C 180.457031 160.179688 180.503906 160.167969 180.550781 160.15625 C 180.992188 160.070312 181.433594 159.972656 181.871094 159.863281 C 182 159.828125 182.128906 159.796875 182.257812 159.761719 C 182.746094 159.632812 183.234375 159.492188 183.714844 159.332031 C 183.941406 159.785156 184.1875 160.226562 184.4375 160.667969 C 184.507812 160.785156 184.578125 160.902344 184.648438 161.019531 C 184.875 161.402344 185.113281 161.773438 185.363281 162.140625 C 185.394531 162.183594 185.421875 162.230469 185.449219 162.277344 Z M 184.28125 136.882812 C 184.691406 137.292969 185.082031 137.714844 185.449219 138.148438 C 185.421875 138.191406 185.394531 138.234375 185.367188 138.277344 C 185.117188 138.648438 184.878906 139.027344 184.648438 139.410156 C 184.578125 139.523438 184.511719 139.636719 184.441406 139.753906 C 184.1875 140.191406 183.941406 140.636719 183.714844 141.089844 C 183.234375 140.929688 182.75 140.789062 182.257812 140.660156 C 182.128906 140.625 182 140.59375 181.871094 140.558594 C 181.4375 140.453125 181.003906 140.355469 180.5625 140.269531 C 180.511719 140.257812 180.464844 140.242188 180.410156 140.234375 C 180.367188 139.660156 180.34375 139.082031 180.34375 138.507812 C 180.34375 137.007812 180.507812 135.523438 180.8125 134.066406 C 182.054688 134.890625 183.222656 135.824219 184.28125 136.882812 Z M 189.542969 138.148438 C 189.910156 137.714844 190.300781 137.292969 190.710938 136.882812 C 191.769531 135.824219 192.9375 134.886719 194.179688 134.070312 C 194.484375 135.527344 194.648438 137.011719 194.648438 138.507812 C 194.648438 139.082031 194.625 139.660156 194.582031 140.234375 C 194.53125 140.246094 194.480469 140.257812 194.429688 140.269531 C 193.992188 140.355469 193.558594 140.453125 193.125 140.5625 C 192.992188 140.59375 192.863281 140.625 192.734375 140.660156 C 192.246094 140.792969 191.757812 140.929688 191.277344 141.089844 C 191.050781 140.636719 190.804688 140.191406 190.550781 139.75 C 190.484375 139.636719 190.414062 139.523438 190.347656 139.410156 C 190.113281 139.023438 189.871094 138.640625 189.617188 138.265625 C 189.589844 138.226562 189.570312 138.1875 189.542969 138.148438 Z M 196.574219 150.117188 C 196.625 150.148438 196.671875 150.179688 196.722656 150.210938 C 196.671875 150.242188 196.625 150.277344 196.574219 150.304688 C 196.289062 150.476562 195.996094 150.636719 195.703125 150.792969 C 195.5625 150.871094 195.421875 150.949219 195.28125 151.023438 C 194.839844 151.246094 194.398438 151.457031 193.945312 151.648438 C 193.128906 151.992188 192.738281 152.929688 193.070312 153.75 C 193.25 154.207031 193.414062 154.667969 193.570312 155.136719 C 193.617188 155.289062 193.660156 155.449219 193.707031 155.605469 C 193.804688 155.921875 193.894531 156.238281 193.976562 156.5625 C 193.992188 156.617188 194.003906 156.675781 194.015625 156.730469 C 193.957031 156.71875 193.898438 156.707031 193.839844 156.691406 C 193.519531 156.609375 193.203125 156.519531 192.890625 156.425781 C 192.734375 156.378906 192.574219 156.335938 192.421875 156.285156 C 191.953125 156.132812 191.492188 155.96875 191.035156 155.785156 C 190.210938 155.457031 189.277344 155.847656 188.929688 156.660156 C 188.738281 157.113281 188.53125 157.558594 188.308594 157.996094 C 188.234375 158.140625 188.15625 158.277344 188.078125 158.417969 C 187.921875 158.710938 187.761719 159.003906 187.589844 159.292969 C 187.5625 159.34375 187.527344 159.390625 187.496094 159.441406 C 187.464844 159.390625 187.429688 159.339844 187.398438 159.289062 C 187.230469 159.003906 187.074219 158.71875 186.917969 158.429688 C 186.839844 158.285156 186.757812 158.144531 186.683594 157.996094 C 186.464844 157.558594 186.253906 157.113281 186.0625 156.664062 C 185.714844 155.847656 184.78125 155.457031 183.960938 155.785156 C 183.503906 155.96875 183.042969 156.132812 182.574219 156.285156 C 182.414062 156.335938 182.253906 156.382812 182.089844 156.429688 C 181.78125 156.523438 181.46875 156.613281 181.15625 156.695312 C 181.097656 156.707031 181.039062 156.71875 180.976562 156.734375 C 180.992188 156.679688 181.003906 156.621094 181.015625 156.566406 C 181.097656 156.238281 181.191406 155.917969 181.289062 155.59375 C 181.335938 155.445312 181.375 155.292969 181.425781 155.144531 C 181.578125 154.675781 181.742188 154.210938 181.925781 153.753906 C 182.257812 152.929688 181.867188 151.996094 181.050781 151.648438 C 180.597656 151.457031 180.152344 151.246094 179.714844 151.023438 C 179.570312 150.953125 179.4375 150.875 179.296875 150.800781 C 179 150.640625 178.707031 150.480469 178.421875 150.308594 C 178.371094 150.277344 178.320312 150.246094 178.269531 150.214844 C 178.320312 150.183594 178.371094 150.148438 178.421875 150.121094 C 178.707031 149.949219 178.996094 149.789062 179.289062 149.632812 C 179.433594 149.554688 179.570312 149.476562 179.714844 149.402344 C 180.152344 149.183594 180.597656 148.96875 181.050781 148.78125 C 181.867188 148.4375 182.257812 147.5 181.925781 146.675781 C 181.742188 146.21875 181.578125 145.757812 181.425781 145.289062 C 181.375 145.136719 181.335938 144.980469 181.289062 144.828125 C 181.191406 144.507812 181.097656 144.1875 181.019531 143.867188 C 181.003906 143.808594 180.992188 143.75 180.976562 143.695312 C 181.035156 143.707031 181.09375 143.71875 181.152344 143.734375 C 181.472656 143.816406 181.792969 143.910156 182.109375 144.003906 C 182.261719 144.050781 182.417969 144.089844 182.570312 144.140625 C 183.039062 144.292969 183.5 144.457031 183.957031 144.640625 C 184.058594 144.683594 184.164062 144.710938 184.265625 144.730469 C 184.296875 144.734375 184.324219 144.734375 184.355469 144.738281 C 184.425781 144.75 184.496094 144.757812 184.5625 144.757812 C 184.566406 144.757812 184.570312 144.757812 184.570312 144.757812 C 184.710938 144.757812 184.847656 144.734375 184.980469 144.699219 C 185.015625 144.691406 185.046875 144.679688 185.078125 144.667969 C 185.203125 144.625 185.320312 144.574219 185.429688 144.503906 C 185.4375 144.5 185.449219 144.496094 185.457031 144.492188 C 185.570312 144.417969 185.671875 144.320312 185.765625 144.214844 C 185.789062 144.191406 185.8125 144.164062 185.832031 144.136719 C 185.921875 144.023438 186.003906 143.902344 186.0625 143.765625 C 186.253906 143.3125 186.464844 142.867188 186.6875 142.429688 C 186.757812 142.285156 186.839844 142.148438 186.917969 142.003906 C 187.070312 141.710938 187.230469 141.425781 187.402344 141.140625 C 187.433594 141.089844 187.464844 141.039062 187.496094 140.984375 C 187.527344 141.035156 187.5625 141.085938 187.589844 141.136719 C 187.761719 141.421875 187.921875 141.710938 188.074219 142 C 188.152344 142.144531 188.234375 142.285156 188.308594 142.433594 C 188.53125 142.871094 188.742188 143.3125 188.933594 143.765625 C 189.277344 144.582031 190.210938 144.972656 191.035156 144.640625 C 191.492188 144.457031 191.957031 144.292969 192.425781 144.140625 C 192.574219 144.09375 192.726562 144.050781 192.875 144.003906 C 193.199219 143.910156 193.523438 143.8125 193.847656 143.730469 C 193.902344 143.71875 193.960938 143.707031 194.019531 143.695312 C 194.003906 143.75 193.992188 143.808594 193.976562 143.867188 C 193.894531 144.1875 193.804688 144.503906 193.707031 144.824219 C 193.660156 144.976562 193.617188 145.136719 193.570312 145.289062 C 193.417969 145.757812 193.253906 146.21875 193.070312 146.675781 C 192.738281 147.496094 193.128906 148.433594 193.945312 148.777344 C 194.398438 148.96875 194.84375 149.179688 195.28125 149.402344 C 195.425781 149.472656 195.566406 149.554688 195.707031 149.632812 C 195.996094 149.785156 196.289062 149.949219 196.574219 150.117188 Z M 177.519531 143.128906 C 177.53125 143.175781 177.542969 143.226562 177.554688 143.277344 C 177.640625 143.714844 177.738281 144.152344 177.847656 144.585938 C 177.878906 144.714844 177.910156 144.84375 177.945312 144.972656 C 178.074219 145.460938 178.214844 145.949219 178.375 146.429688 C 177.921875 146.65625 177.480469 146.902344 177.039062 147.15625 C 176.921875 147.222656 176.808594 147.292969 176.691406 147.363281 C 176.308594 147.59375 175.925781 147.835938 175.554688 148.089844 C 175.515625 148.117188 175.472656 148.140625 175.433594 148.167969 C 175 147.796875 174.578125 147.40625 174.164062 146.996094 C 173.105469 145.933594 172.167969 144.765625 171.34375 143.515625 C 173.359375 143.097656 175.433594 142.960938 177.519531 143.128906 Z M 175.433594 152.257812 C 175.480469 152.289062 175.53125 152.316406 175.578125 152.351562 C 175.941406 152.597656 176.308594 152.832031 176.6875 153.058594 C 176.804688 153.128906 176.921875 153.199219 177.042969 153.269531 C 177.480469 153.523438 177.921875 153.765625 178.375 153.992188 C 178.214844 154.472656 178.074219 154.960938 177.945312 155.453125 C 177.910156 155.578125 177.878906 155.707031 177.84375 155.835938 C 177.738281 156.269531 177.636719 156.710938 177.550781 157.152344 C 177.542969 157.203125 177.527344 157.246094 177.519531 157.296875 C 175.429688 157.460938 173.359375 157.328125 171.34375 156.910156 C 172.167969 155.660156 173.101562 154.488281 174.164062 153.429688 C 174.578125 153.015625 175 152.625 175.433594 152.257812 Z M 197.472656 157.296875 C 197.460938 157.246094 197.449219 157.203125 197.4375 157.152344 C 197.351562 156.714844 197.253906 156.273438 197.144531 155.839844 C 197.113281 155.710938 197.082031 155.578125 197.046875 155.449219 C 196.914062 154.960938 196.777344 154.472656 196.617188 153.992188 C 196.625 153.988281 196.632812 153.980469 196.640625 153.976562 C 197.085938 153.753906 197.519531 153.515625 197.949219 153.265625 C 198.070312 153.199219 198.183594 153.128906 198.304688 153.058594 C 198.683594 152.828125 199.058594 152.589844 199.425781 152.34375 C 199.46875 152.3125 199.515625 152.285156 199.558594 152.257812 C 199.992188 152.625 200.414062 153.015625 200.828125 153.429688 C 201.886719 154.488281 202.824219 155.660156 203.644531 156.90625 C 201.628906 157.328125 199.558594 157.460938 197.472656 157.296875 Z M 199.558594 148.167969 C 199.515625 148.136719 199.472656 148.113281 199.425781 148.082031 C 199.058594 147.832031 198.683594 147.59375 198.300781 147.363281 C 198.183594 147.292969 198.070312 147.222656 197.949219 147.15625 C 197.511719 146.902344 197.070312 146.65625 196.617188 146.429688 C 196.777344 145.953125 196.914062 145.464844 197.042969 144.976562 C 197.078125 144.84375 197.113281 144.714844 197.144531 144.582031 C 197.253906 144.148438 197.351562 143.710938 197.4375 143.273438 C 197.445312 143.222656 197.460938 143.175781 197.46875 143.128906 C 199.554688 142.960938 201.628906 143.097656 203.644531 143.515625 C 202.824219 144.765625 201.882812 145.933594 200.824219 146.996094 C 200.414062 147.40625 199.992188 147.796875 199.558594 148.167969 Z M 207.183594 130.523438 C 207.355469 133.988281 206.707031 137.410156 205.285156 140.558594 C 202.867188 139.953125 200.359375 139.71875 197.855469 139.855469 C 197.878906 139.40625 197.898438 138.953125 197.898438 138.507812 C 197.898438 136.449219 197.636719 134.414062 197.140625 132.429688 C 200.289062 131 203.71875 130.351562 207.183594 130.523438 Z M 187.496094 122.371094 C 190.074219 124.703125 192.03125 127.585938 193.246094 130.816406 C 191.492188 131.875 189.863281 133.128906 188.414062 134.582031 C 188.09375 134.902344 187.792969 135.230469 187.496094 135.5625 C 187.199219 135.230469 186.898438 134.902344 186.578125 134.582031 C 185.125 133.128906 183.5 131.875 181.746094 130.816406 C 182.960938 127.585938 184.917969 124.703125 187.496094 122.371094 Z M 167.808594 130.523438 C 171.277344 130.347656 174.707031 131.003906 177.851562 132.429688 C 177.355469 134.414062 177.089844 136.449219 177.089844 138.507812 C 177.089844 138.953125 177.113281 139.40625 177.136719 139.855469 C 174.628906 139.71875 172.121094 139.953125 169.707031 140.558594 C 168.285156 137.410156 167.632812 133.988281 167.808594 130.523438 Z M 159.65625 150.210938 C 161.984375 147.636719 164.867188 145.675781 168.101562 144.460938 C 169.160156 146.214844 170.414062 147.84375 171.867188 149.292969 C 172.1875 149.613281 172.515625 149.914062 172.847656 150.210938 C 172.515625 150.507812 172.183594 150.8125 171.867188 151.128906 C 170.414062 152.582031 169.160156 154.207031 168.101562 155.960938 C 164.871094 154.746094 161.988281 152.789062 159.65625 150.210938 Z M 167.808594 169.898438 C 167.632812 166.429688 168.289062 163 169.710938 159.855469 C 171.695312 160.351562 173.734375 160.617188 175.792969 160.617188 C 176.238281 160.617188 176.6875 160.59375 177.136719 160.570312 C 177.113281 161.019531 177.089844 161.46875 177.089844 161.917969 C 177.089844 163.972656 177.355469 166.011719 177.851562 167.996094 C 174.703125 169.421875 171.277344 170.074219 167.808594 169.898438 Z M 187.496094 178.050781 C 184.917969 175.722656 182.960938 172.839844 181.746094 169.605469 C 183.5 168.546875 185.125 167.292969 186.578125 165.839844 C 186.898438 165.519531 187.199219 165.191406 187.496094 164.859375 C 187.792969 165.191406 188.09375 165.519531 188.414062 165.839844 C 189.863281 167.292969 191.492188 168.546875 193.246094 169.605469 C 192.03125 172.839844 190.074219 175.722656 187.496094 178.050781 Z M 207.183594 169.898438 C 203.710938 170.070312 200.285156 169.421875 197.140625 167.996094 C 197.636719 166.007812 197.898438 163.972656 197.898438 161.914062 C 197.898438 161.46875 197.878906 161.019531 197.855469 160.570312 C 198.304688 160.59375 198.753906 160.613281 199.199219 160.613281 C 201.257812 160.613281 203.296875 160.351562 205.28125 159.855469 C 206.707031 163.003906 207.359375 166.433594 207.183594 169.898438 Z M 206.890625 155.960938 C 205.832031 154.207031 204.578125 152.582031 203.125 151.128906 C 202.808594 150.808594 202.476562 150.507812 202.144531 150.210938 C 202.476562 149.914062 202.804688 149.613281 203.125 149.292969 C 204.578125 147.839844 205.832031 146.214844 206.890625 144.460938 C 210.121094 145.675781 213.003906 147.636719 215.335938 150.210938 C 213.003906 152.789062 210.121094 154.746094 206.890625 155.960938 Z M 206.890625 155.960938 " fill-opacity="1" fill-rule="nonzero"/></g><g fill="#ffd887" fill-opacity="1"><g transform="translate(52.622656, 311.236914)"><g><path d="M 0.984375 -13.5 C 0.984375 -15.414062 1.226562 -17.21875 1.71875 -18.90625 C 2.21875 -20.601562 2.972656 -22.085938 3.984375 -23.359375 C 5.003906 -24.640625 6.316406 -25.640625 7.921875 -26.359375 C 9.523438 -27.078125 11.429688 -27.4375 13.640625 -27.4375 C 15.859375 -27.4375 17.765625 -27.078125 19.359375 -26.359375 C 20.953125 -25.640625 22.257812 -24.640625 23.28125 -23.359375 C 24.300781 -22.085938 25.054688 -20.601562 25.546875 -18.90625 C 26.046875 -17.21875 26.296875 -15.414062 26.296875 -13.5 C 26.296875 -11.570312 26.046875 -9.769531 25.546875 -8.09375 C 25.054688 -6.414062 24.300781 -4.9375 23.28125 -3.65625 C 22.257812 -2.375 20.953125 -1.375 19.359375 -0.65625 C 17.765625 0.0625 15.859375 0.421875 13.640625 0.421875 C 12.109375 0.421875 10.707031 0.234375 9.4375 -0.140625 C 9.914062 0.566406 10.519531 1.125 11.25 1.53125 C 11.976562 1.945312 12.765625 2.234375 13.609375 2.390625 C 14.460938 2.546875 15.285156 2.625 16.078125 2.625 C 17.335938 2.625 18.457031 2.332031 19.4375 1.75 C 20.425781 1.175781 21.148438 0.535156 21.609375 -0.171875 C 21.609375 -0.171875 21.710938 0.0507812 21.921875 0.5 C 22.128906 0.945312 22.414062 1.503906 22.78125 2.171875 C 23.144531 2.847656 23.550781 3.523438 24 4.203125 C 23.132812 5.285156 22.179688 5.976562 21.140625 6.28125 C 20.097656 6.59375 19.070312 6.75 18.0625 6.75 C 17.050781 6.75 16.0625 6.550781 15.09375 6.15625 C 14.125 5.769531 13.222656 5.238281 12.390625 4.5625 C 11.554688 3.894531 10.84375 3.144531 10.25 2.3125 C 9.65625 1.476562 9.21875 0.613281 8.9375 -0.28125 C 7.101562 -0.894531 5.597656 -1.847656 4.421875 -3.140625 C 3.242188 -4.441406 2.375 -5.984375 1.8125 -7.765625 C 1.257812 -9.546875 0.984375 -11.457031 0.984375 -13.5 Z M 7.28125 -13.53125 C 7.28125 -11.976562 7.5 -10.550781 7.9375 -9.25 C 8.375 -7.957031 9.054688 -6.925781 9.984375 -6.15625 C 10.921875 -5.394531 12.128906 -5.015625 13.609375 -5.015625 C 15.097656 -5.015625 16.3125 -5.394531 17.25 -6.15625 C 18.195312 -6.925781 18.890625 -7.957031 19.328125 -9.25 C 19.765625 -10.550781 19.984375 -11.976562 19.984375 -13.53125 C 19.984375 -15.09375 19.765625 -16.515625 19.328125 -17.796875 C 18.890625 -19.085938 18.195312 -20.113281 17.25 -20.875 C 16.3125 -21.644531 15.097656 -22.03125 13.609375 -22.03125 C 12.128906 -22.03125 10.921875 -21.644531 9.984375 -20.875 C 9.054688 -20.113281 8.375 -19.085938 7.9375 -17.796875 C 7.5 -16.515625 7.28125 -15.09375 7.28125 -13.53125 Z M 7.28125 -13.53125 "/></g></g></g><g fill="#ffd887" fill-opacity="1"><g transform="translate(82.690936, 311.236914)"><g><path d="M 0.28125 -27.015625 L 8.546875 -27.015625 C 8.222656 -26.734375 7.976562 -26.253906 7.8125 -25.578125 C 7.644531 -24.910156 7.5625 -24.222656 7.5625 -23.515625 L 7.5625 -10.71875 C 7.5625 -9.71875 7.628906 -8.8125 7.765625 -8 C 7.910156 -7.1875 8.234375 -6.539062 8.734375 -6.0625 C 9.234375 -5.582031 10.046875 -5.34375 11.171875 -5.34375 C 12.296875 -5.34375 13.109375 -5.582031 13.609375 -6.0625 C 14.109375 -6.539062 14.425781 -7.1875 14.5625 -8 C 14.707031 -8.8125 14.78125 -9.71875 14.78125 -10.71875 L 14.78125 -23.515625 C 14.78125 -24.222656 14.695312 -24.910156 14.53125 -25.578125 C 14.363281 -26.253906 14.117188 -26.734375 13.796875 -27.015625 L 22.0625 -27.015625 C 21.75 -26.734375 21.503906 -26.257812 21.328125 -25.59375 C 21.160156 -24.9375 21.078125 -24.253906 21.078125 -23.546875 L 21.078125 -8.59375 C 21.078125 -6.96875 20.835938 -5.613281 20.359375 -4.53125 C 19.890625 -3.445312 19.28125 -2.570312 18.53125 -1.90625 C 17.789062 -1.25 16.992188 -0.753906 16.140625 -0.421875 C 15.296875 -0.0859375 14.5 0.140625 13.75 0.265625 C 13 0.390625 12.382812 0.453125 11.90625 0.453125 C 11.4375 0.453125 11.203125 0.453125 11.203125 0.453125 C 11.203125 0.453125 10.957031 0.453125 10.46875 0.453125 C 9.988281 0.453125 9.367188 0.390625 8.609375 0.265625 C 7.847656 0.140625 7.046875 -0.0859375 6.203125 -0.421875 C 5.367188 -0.753906 4.570312 -1.25 3.8125 -1.90625 C 3.0625 -2.570312 2.445312 -3.445312 1.96875 -4.53125 C 1.5 -5.613281 1.265625 -6.96875 1.265625 -8.59375 L 1.265625 -23.546875 C 1.265625 -24.253906 1.175781 -24.9375 1 -25.59375 C 0.832031 -26.257812 0.59375 -26.734375 0.28125 -27.015625 Z M 0.28125 -27.015625 "/></g></g></g><g fill="#ffd887" fill-opacity="1"><g transform="translate(107.831881, 311.236914)"><g><path d="M 1.546875 -23.515625 C 1.546875 -24.222656 1.457031 -24.910156 1.28125 -25.578125 C 1.113281 -26.253906 0.875 -26.734375 0.5625 -27.015625 L 12.265625 -27.015625 C 13.367188 -27.015625 14.472656 -26.832031 15.578125 -26.46875 C 16.691406 -26.101562 17.703125 -25.554688 18.609375 -24.828125 C 19.523438 -24.109375 20.257812 -23.210938 20.8125 -22.140625 C 21.363281 -21.066406 21.640625 -19.816406 21.640625 -18.390625 C 21.640625 -16.453125 21.113281 -14.835938 20.0625 -13.546875 C 19.007812 -12.265625 17.648438 -11.367188 15.984375 -10.859375 L 17.578125 -6.640625 C 18.367188 -4.566406 19.097656 -3.003906 19.765625 -1.953125 C 20.441406 -0.910156 21.039062 -0.257812 21.5625 0 L 12.3125 0 C 12.519531 -0.238281 12.640625 -0.582031 12.671875 -1.03125 C 12.703125 -1.476562 12.582031 -2.019531 12.3125 -2.65625 L 7.84375 -15.09375 L 7.84375 -3.46875 C 7.84375 -2.78125 7.925781 -2.097656 8.09375 -1.421875 C 8.257812 -0.753906 8.5 -0.28125 8.8125 0 L 0.5625 0 C 0.875 -0.28125 1.113281 -0.757812 1.28125 -1.4375 C 1.457031 -2.125 1.546875 -2.8125 1.546875 -3.5 Z M 7.84375 -15.09375 L 11.84375 -15.09375 C 12.644531 -15.09375 13.304688 -15.257812 13.828125 -15.59375 C 14.347656 -15.925781 14.738281 -16.347656 15 -16.859375 C 15.269531 -17.378906 15.40625 -17.890625 15.40625 -18.390625 C 15.40625 -19.273438 15.109375 -20.046875 14.515625 -20.703125 C 13.929688 -21.367188 13.0625 -21.703125 11.90625 -21.703125 L 7.84375 -21.703125 Z M 7.84375 -15.09375 "/></g></g></g><g fill="#ffd887" fill-opacity="1"><g transform="translate(132.832854, 311.236914)"><g><path d="M 2.9375 0 C 2.488281 -1.320312 2.117188 -2.566406 1.828125 -3.734375 C 1.546875 -4.898438 1.332031 -6.097656 1.1875 -7.328125 C 1.050781 -8.566406 0.984375 -9.941406 0.984375 -11.453125 C 0.984375 -12.984375 1.175781 -14.519531 1.5625 -16.0625 C 1.957031 -17.601562 2.539062 -19.050781 3.3125 -20.40625 C 4.09375 -21.769531 5.046875 -22.976562 6.171875 -24.03125 C 7.304688 -25.09375 8.617188 -25.925781 10.109375 -26.53125 C 11.597656 -27.132812 13.25 -27.4375 15.0625 -27.4375 C 15.9375 -27.4375 16.796875 -27.335938 17.640625 -27.140625 C 18.484375 -26.953125 19.226562 -26.671875 19.875 -26.296875 C 20.53125 -25.921875 20.988281 -25.476562 21.25 -24.96875 L 21.25 -3.5 C 21.25 -2.8125 21.332031 -2.125 21.5 -1.4375 C 21.664062 -0.757812 21.910156 -0.28125 22.234375 0 L 13.96875 0 C 14.289062 -0.28125 14.535156 -0.753906 14.703125 -1.421875 C 14.867188 -2.097656 14.953125 -2.78125 14.953125 -3.46875 L 14.953125 -8.0625 L 7.453125 -8.0625 C 7.648438 -6.476562 8.019531 -5.023438 8.5625 -3.703125 C 9.101562 -2.390625 9.816406 -1.15625 10.703125 0 Z M 7.46875 -13.390625 L 14.953125 -13.390625 L 14.984375 -21.671875 C 13.742188 -21.671875 12.6875 -21.414062 11.8125 -20.90625 C 10.9375 -20.40625 10.195312 -19.738281 9.59375 -18.90625 C 9 -18.082031 8.535156 -17.1875 8.203125 -16.21875 C 7.867188 -15.257812 7.625 -14.316406 7.46875 -13.390625 Z M 7.46875 -13.390625 "/></g></g></g><g fill="#ffd887" fill-opacity="1"><g transform="translate(158.141777, 311.236914)"><g><path d="M 0.5625 -27.015625 L 7.84375 -27.015625 L 15.453125 -12.796875 L 15.453125 -23.515625 C 15.453125 -24.222656 15.367188 -24.910156 15.203125 -25.578125 C 15.035156 -26.253906 14.789062 -26.734375 14.46875 -27.015625 L 22.734375 -27.015625 C 22.421875 -26.734375 22.175781 -26.257812 22 -25.59375 C 21.832031 -24.9375 21.75 -24.253906 21.75 -23.546875 L 21.75 -3.46875 C 21.75 -2.78125 21.832031 -2.097656 22 -1.421875 C 22.175781 -0.753906 22.421875 -0.28125 22.734375 0 L 15.453125 0 L 7.84375 -14.21875 L 7.84375 -3.5 C 7.84375 -2.8125 7.925781 -2.125 8.09375 -1.4375 C 8.257812 -0.757812 8.5 -0.28125 8.8125 0 L 0.5625 0 C 0.875 -0.28125 1.113281 -0.753906 1.28125 -1.421875 C 1.457031 -2.097656 1.546875 -2.78125 1.546875 -3.46875 L 1.546875 -23.546875 C 1.546875 -24.253906 1.457031 -24.9375 1.28125 -25.59375 C 1.113281 -26.257812 0.875 -26.734375 0.5625 -27.015625 Z M 0.5625 -27.015625 "/></g></g></g><g fill="#ffd887" fill-opacity="1"><g transform="translate(184.234602, 311.236914)"><g/></g></g><g fill="#ffd887" fill-opacity="1"><g transform="translate(195.433446, 311.236914)"><g><path d="M 3.859375 -19.0625 C 3.503906 -20.144531 3.171875 -21.160156 2.859375 -22.109375 C 2.554688 -23.066406 2.203125 -23.953125 1.796875 -24.765625 C 1.398438 -25.578125 0.894531 -26.328125 0.28125 -27.015625 L 10.078125 -27.015625 C 9.765625 -26.722656 9.523438 -26.382812 9.359375 -26 C 9.203125 -25.613281 9.125 -25.234375 9.125 -24.859375 C 9.125 -24.410156 9.226562 -23.75 9.4375 -22.875 C 9.65625 -22 9.929688 -20.988281 10.265625 -19.84375 C 10.609375 -18.707031 10.96875 -17.523438 11.34375 -16.296875 C 11.726562 -15.066406 12.109375 -13.867188 12.484375 -12.703125 C 12.859375 -11.546875 13.175781 -10.515625 13.4375 -9.609375 C 13.863281 -10.066406 14.265625 -10.679688 14.640625 -11.453125 C 15.015625 -12.234375 15.347656 -13.085938 15.640625 -14.015625 C 15.929688 -14.953125 16.15625 -15.90625 16.3125 -16.875 C 16.46875 -17.851562 16.546875 -18.757812 16.546875 -19.59375 C 16.546875 -20.90625 16.425781 -22.023438 16.1875 -22.953125 C 15.957031 -23.890625 15.679688 -24.65625 15.359375 -25.25 C 15.046875 -25.851562 14.773438 -26.296875 14.546875 -26.578125 C 14.316406 -26.867188 14.203125 -27.015625 14.203125 -27.015625 L 20.53125 -27.015625 C 20.53125 -27.015625 20.648438 -26.921875 20.890625 -26.734375 C 21.128906 -26.546875 21.398438 -26.210938 21.703125 -25.734375 C 22.015625 -25.265625 22.289062 -24.59375 22.53125 -23.71875 C 22.78125 -22.851562 22.90625 -21.75 22.90625 -20.40625 C 22.90625 -18.601562 22.644531 -16.769531 22.125 -14.90625 C 21.601562 -13.050781 20.9375 -11.234375 20.125 -9.453125 C 19.3125 -7.671875 18.445312 -5.972656 17.53125 -4.359375 C 16.613281 -2.753906 15.753906 -1.300781 14.953125 0 L 9.765625 0 C 9.304688 -1.488281 8.890625 -2.859375 8.515625 -4.109375 C 8.140625 -5.359375 7.78125 -6.550781 7.4375 -7.6875 C 7.09375 -8.832031 6.742188 -9.984375 6.390625 -11.140625 C 6.035156 -12.296875 5.648438 -13.519531 5.234375 -14.8125 C 4.828125 -16.101562 4.367188 -17.519531 3.859375 -19.0625 Z M 3.859375 -19.0625 "/></g></g></g><g fill="#ffd887" fill-opacity="1"><g transform="translate(221.414279, 311.236914)"><g><path d="M 14.359375 0.421875 C 12.328125 0.421875 10.488281 0.0546875 8.84375 -0.671875 C 7.207031 -1.398438 5.800781 -2.398438 4.625 -3.671875 C 3.445312 -4.953125 2.546875 -6.429688 1.921875 -8.109375 C 1.296875 -9.796875 0.984375 -11.601562 0.984375 -13.53125 C 0.984375 -15.445312 1.296875 -17.242188 1.921875 -18.921875 C 2.546875 -20.609375 3.445312 -22.085938 4.625 -23.359375 C 5.800781 -24.640625 7.207031 -25.640625 8.84375 -26.359375 C 10.488281 -27.078125 12.328125 -27.4375 14.359375 -27.4375 C 16.359375 -27.4375 18.195312 -27.15625 19.875 -26.59375 C 21.5625 -26.039062 22.945312 -25.164062 24.03125 -23.96875 C 23.78125 -23.382812 23.546875 -22.785156 23.328125 -22.171875 C 23.117188 -21.554688 22.929688 -20.988281 22.765625 -20.46875 C 22.597656 -19.945312 22.460938 -19.519531 22.359375 -19.1875 C 22.253906 -18.863281 22.203125 -18.703125 22.203125 -18.703125 C 22.203125 -18.703125 22.078125 -18.875 21.828125 -19.21875 C 21.578125 -19.5625 21.175781 -19.953125 20.625 -20.390625 C 20.070312 -20.835938 19.363281 -21.234375 18.5 -21.578125 C 17.644531 -21.921875 16.613281 -22.09375 15.40625 -22.09375 C 13.96875 -22.09375 12.628906 -21.773438 11.390625 -21.140625 C 10.160156 -20.503906 9.164062 -19.550781 8.40625 -18.28125 C 7.65625 -17.007812 7.28125 -15.414062 7.28125 -13.5 C 7.28125 -12.675781 7.351562 -11.910156 7.5 -11.203125 C 7.65625 -10.503906 7.867188 -9.867188 8.140625 -9.296875 C 8.054688 -10.859375 8.3125 -12.269531 8.90625 -13.53125 C 9.5 -14.789062 10.359375 -15.796875 11.484375 -16.546875 C 12.617188 -17.296875 13.925781 -17.671875 15.40625 -17.671875 C 15.976562 -17.671875 16.546875 -17.597656 17.109375 -17.453125 C 17.679688 -17.316406 18.1875 -17.125 18.625 -16.875 C 19.070312 -16.632812 19.367188 -16.375 19.515625 -16.09375 L 19.515625 -9.90625 C 18.953125 -10.394531 18.164062 -10.832031 17.15625 -11.21875 C 16.15625 -11.613281 15.101562 -11.8125 14 -11.8125 C 12.875 -11.8125 11.863281 -11.664062 10.96875 -11.375 C 10.070312 -11.09375 9.429688 -10.65625 9.046875 -10.0625 C 8.671875 -9.476562 8.679688 -8.726562 9.078125 -7.8125 C 9.835938 -6.863281 10.769531 -6.148438 11.875 -5.671875 C 12.976562 -5.191406 14.15625 -4.953125 15.40625 -4.953125 C 16.613281 -4.953125 17.644531 -5.125 18.5 -5.46875 C 19.363281 -5.8125 20.070312 -6.203125 20.625 -6.640625 C 21.175781 -7.085938 21.578125 -7.484375 21.828125 -7.828125 C 22.078125 -8.171875 22.203125 -8.34375 22.203125 -8.34375 C 22.203125 -8.34375 22.253906 -8.175781 22.359375 -7.84375 C 22.460938 -7.519531 22.597656 -7.097656 22.765625 -6.578125 C 22.929688 -6.054688 23.117188 -5.488281 23.328125 -4.875 C 23.546875 -4.257812 23.78125 -3.660156 24.03125 -3.078125 C 22.945312 -1.878906 21.5625 -0.992188 19.875 -0.421875 C 18.195312 0.140625 16.359375 0.421875 14.359375 0.421875 Z M 14.359375 0.421875 "/></g></g></g><g fill="#ffd887" fill-opacity="1"><g transform="translate(248.234994, 311.236914)"><g><path d="M 1.546875 -23.515625 C 1.546875 -24.222656 1.457031 -24.910156 1.28125 -25.578125 C 1.113281 -26.253906 0.875 -26.734375 0.5625 -27.015625 L 12.265625 -27.015625 C 13.367188 -27.015625 14.472656 -26.832031 15.578125 -26.46875 C 16.691406 -26.101562 17.703125 -25.554688 18.609375 -24.828125 C 19.523438 -24.109375 20.257812 -23.210938 20.8125 -22.140625 C 21.363281 -21.066406 21.640625 -19.816406 21.640625 -18.390625 C 21.640625 -16.453125 21.113281 -14.835938 20.0625 -13.546875 C 19.007812 -12.265625 17.648438 -11.367188 15.984375 -10.859375 L 17.578125 -6.640625 C 18.367188 -4.566406 19.097656 -3.003906 19.765625 -1.953125 C 20.441406 -0.910156 21.039062 -0.257812 21.5625 0 L 12.3125 0 C 12.519531 -0.238281 12.640625 -0.582031 12.671875 -1.03125 C 12.703125 -1.476562 12.582031 -2.019531 12.3125 -2.65625 L 7.84375 -15.09375 L 7.84375 -3.46875 C 7.84375 -2.78125 7.925781 -2.097656 8.09375 -1.421875 C 8.257812 -0.753906 8.5 -0.28125 8.8125 0 L 0.5625 0 C 0.875 -0.28125 1.113281 -0.757812 1.28125 -1.4375 C 1.457031 -2.125 1.546875 -2.8125 1.546875 -3.5 Z M 7.84375 -15.09375 L 11.84375 -15.09375 C 12.644531 -15.09375 13.304688 -15.257812 13.828125 -15.59375 C 14.347656 -15.925781 14.738281 -16.347656 15 -16.859375 C 15.269531 -17.378906 15.40625 -17.890625 15.40625 -18.390625 C 15.40625 -19.273438 15.109375 -20.046875 14.515625 -20.703125 C 13.929688 -21.367188 13.0625 -21.703125 11.90625 -21.703125 L 7.84375 -21.703125 Z M 7.84375 -15.09375 "/></g></g></g><g fill="#ffd887" fill-opacity="1"><g transform="translate(273.235961, 311.236914)"><g><path d="M 0.5625 -4.59375 C 1.15625 -5.320312 1.734375 -6.085938 2.296875 -6.890625 C 2.859375 -7.691406 3.34375 -8.503906 3.75 -9.328125 C 4.238281 -8.554688 4.84375 -7.84375 5.5625 -7.1875 C 6.28125 -6.539062 7.070312 -6.023438 7.9375 -5.640625 C 8.800781 -5.253906 9.710938 -5.0625 10.671875 -5.0625 C 11.359375 -5.0625 12.003906 -5.148438 12.609375 -5.328125 C 13.222656 -5.503906 13.71875 -5.789062 14.09375 -6.1875 C 14.476562 -6.582031 14.671875 -7.097656 14.671875 -7.734375 C 14.671875 -8.304688 14.421875 -8.78125 13.921875 -9.15625 C 13.429688 -9.53125 12.785156 -9.847656 11.984375 -10.109375 C 11.179688 -10.367188 10.296875 -10.628906 9.328125 -10.890625 C 8.367188 -11.148438 7.40625 -11.46875 6.4375 -11.84375 C 5.46875 -12.21875 4.582031 -12.703125 3.78125 -13.296875 C 2.976562 -13.898438 2.328125 -14.664062 1.828125 -15.59375 C 1.335938 -16.53125 1.09375 -17.679688 1.09375 -19.046875 C 1.09375 -20.367188 1.40625 -21.546875 2.03125 -22.578125 C 2.65625 -23.617188 3.492188 -24.5 4.546875 -25.21875 C 5.597656 -25.945312 6.773438 -26.5 8.078125 -26.875 C 9.390625 -27.25 10.738281 -27.4375 12.125 -27.4375 C 13.914062 -27.4375 15.421875 -27.242188 16.640625 -26.859375 C 17.867188 -26.484375 18.890625 -26.023438 19.703125 -25.484375 C 20.515625 -24.941406 21.195312 -24.425781 21.75 -23.9375 C 21.289062 -23.207031 20.773438 -22.4375 20.203125 -21.625 C 19.628906 -20.8125 19.101562 -19.941406 18.625 -19.015625 C 17.820312 -19.742188 16.878906 -20.378906 15.796875 -20.921875 C 14.710938 -21.472656 13.535156 -21.75 12.265625 -21.75 C 11.671875 -21.75 11.0625 -21.664062 10.4375 -21.5 C 9.820312 -21.332031 9.304688 -21.0625 8.890625 -20.6875 C 8.472656 -20.3125 8.265625 -19.816406 8.265625 -19.203125 C 8.265625 -18.566406 8.5 -18.054688 8.96875 -17.671875 C 9.445312 -17.296875 10.082031 -16.984375 10.875 -16.734375 C 11.664062 -16.492188 12.535156 -16.253906 13.484375 -16.015625 C 14.441406 -15.773438 15.390625 -15.484375 16.328125 -15.140625 C 17.273438 -14.804688 18.144531 -14.359375 18.9375 -13.796875 C 19.726562 -13.242188 20.363281 -12.519531 20.84375 -11.625 C 21.320312 -10.738281 21.5625 -9.617188 21.5625 -8.265625 C 21.5625 -6.429688 21.070312 -4.863281 20.09375 -3.5625 C 19.125 -2.269531 17.804688 -1.28125 16.140625 -0.59375 C 14.472656 0.0820312 12.59375 0.421875 10.5 0.421875 C 9.320312 0.421875 8.175781 0.273438 7.0625 -0.015625 C 5.957031 -0.304688 4.945312 -0.691406 4.03125 -1.171875 C 3.113281 -1.660156 2.351562 -2.203125 1.75 -2.796875 C 1.144531 -3.398438 0.75 -4 0.5625 -4.59375 Z M 0.5625 -4.59375 "/></g></g></g><g fill="#ffd887" fill-opacity="1"><g transform="translate(298.348921, 311.236914)"><g><path d="M 14.359375 0.421875 C 12.328125 0.421875 10.488281 0.0546875 8.84375 -0.671875 C 7.207031 -1.398438 5.800781 -2.398438 4.625 -3.671875 C 3.445312 -4.953125 2.546875 -6.429688 1.921875 -8.109375 C 1.296875 -9.796875 0.984375 -11.601562 0.984375 -13.53125 C 0.984375 -15.445312 1.296875 -17.242188 1.921875 -18.921875 C 2.546875 -20.609375 3.445312 -22.085938 4.625 -23.359375 C 5.800781 -24.640625 7.207031 -25.640625 8.84375 -26.359375 C 10.488281 -27.078125 12.328125 -27.4375 14.359375 -27.4375 C 16.359375 -27.4375 18.195312 -27.15625 19.875 -26.59375 C 21.5625 -26.039062 22.945312 -25.164062 24.03125 -23.96875 C 23.78125 -23.382812 23.546875 -22.785156 23.328125 -22.171875 C 23.117188 -21.554688 22.929688 -20.988281 22.765625 -20.46875 C 22.597656 -19.945312 22.460938 -19.519531 22.359375 -19.1875 C 22.253906 -18.863281 22.203125 -18.703125 22.203125 -18.703125 C 22.203125 -18.703125 22.078125 -18.875 21.828125 -19.21875 C 21.578125 -19.5625 21.175781 -19.953125 20.625 -20.390625 C 20.070312 -20.835938 19.363281 -21.234375 18.5 -21.578125 C 17.644531 -21.921875 16.613281 -22.09375 15.40625 -22.09375 C 13.96875 -22.09375 12.628906 -21.773438 11.390625 -21.140625 C 10.160156 -20.503906 9.164062 -19.550781 8.40625 -18.28125 C 7.65625 -17.007812 7.28125 -15.414062 7.28125 -13.5 C 7.28125 -12.675781 7.351562 -11.910156 7.5 -11.203125 C 7.65625 -10.503906 7.867188 -9.867188 8.140625 -9.296875 C 8.054688 -10.859375 8.3125 -12.269531 8.90625 -13.53125 C 9.5 -14.789062 10.359375 -15.796875 11.484375 -16.546875 C 12.617188 -17.296875 13.925781 -17.671875 15.40625 -17.671875 C 15.976562 -17.671875 16.546875 -17.597656 17.109375 -17.453125 C 17.679688 -17.316406 18.1875 -17.125 18.625 -16.875 C 19.070312 -16.632812 19.367188 -16.375 19.515625 -16.09375 L 19.515625 -9.90625 C 18.953125 -10.394531 18.164062 -10.832031 17.15625 -11.21875 C 16.15625 -11.613281 15.101562 -11.8125 14 -11.8125 C 12.875 -11.8125 11.863281 -11.664062 10.96875 -11.375 C 10.070312 -11.09375 9.429688 -10.65625 9.046875 -10.0625 C 8.671875 -9.476562 8.679688 -8.726562 9.078125 -7.8125 C 9.835938 -6.863281 10.769531 -6.148438 11.875 -5.671875 C 12.976562 -5.191406 14.15625 -4.953125 15.40625 -4.953125 C 16.613281 -4.953125 17.644531 -5.125 18.5 -5.46875 C 19.363281 -5.8125 20.070312 -6.203125 20.625 -6.640625 C 21.175781 -7.085938 21.578125 -7.484375 21.828125 -7.828125 C 22.078125 -8.171875 22.203125 -8.34375 22.203125 -8.34375 C 22.203125 -8.34375 22.253906 -8.175781 22.359375 -7.84375 C 22.460938 -7.519531 22.597656 -7.097656 22.765625 -6.578125 C 22.929688 -6.054688 23.117188 -5.488281 23.328125 -4.875 C 23.546875 -4.257812 23.78125 -3.660156 24.03125 -3.078125 C 22.945312 -1.878906 21.5625 -0.992188 19.875 -0.421875 C 18.195312 0.140625 16.359375 0.421875 14.359375 0.421875 Z M 14.359375 0.421875 "/></g></g></g></svg>