<svg xmlns="http://www.w3.org/2000/svg" xmlns:xlink="http://www.w3.org/1999/xlink" width="300" zoomAndPan="magnify" viewBox="0 0 224.87999 74.999997" height="100" preserveAspectRatio="xMidYMid meet" version="1.0"><defs><clipPath id="4fadbc213d"><path d="M 203 55 L 220.902344 55 L 220.902344 64 L 203 64 Z M 203 55 " clip-rule="nonzero"/></clipPath></defs><path fill="#cda85e" d="M 10.921875 34.738281 C 9.265625 40.980469 9.285156 43.449219 12.265625 40.589844 C 11.089844 47.257812 5.261719 42.328125 10.921875 34.738281 Z M 10.921875 34.738281 " fill-opacity="1" fill-rule="evenodd"/><path fill="#cda85e" d="M 10.921875 34.738281 C 10.09375 37.859375 9.683594 40.035156 9.855469 41.074219 C 10.023438 42.117188 10.777344 42.019531 12.265625 40.589844 C 11.089844 47.257812 5.261719 42.328125 10.921875 34.738281 Z M 10.1875 36.398438 C 9.648438 38.660156 9.414062 40.269531 9.554688 41.125 C 9.621094 41.546875 9.789062 41.820312 10.003906 41.957031 C 10.234375 42.101562 10.546875 42.128906 10.941406 41.957031 C 11.171875 41.859375 11.445312 41.6875 11.757812 41.441406 C 11.539062 42.195312 11.242188 42.726562 10.914062 43.054688 C 10.636719 43.332031 10.339844 43.453125 10.058594 43.410156 C 9.765625 43.367188 9.5 43.164062 9.285156 42.84375 C 8.953125 42.34375 8.757812 41.582031 8.800781 40.621094 C 8.847656 39.457031 9.25 38.011719 10.1875 36.398438 Z M 10.1875 36.398438 " fill-opacity="1" fill-rule="evenodd"/><path stroke-linecap="round" transform="matrix(0.16283, 0, 0, 0.162501, 6.404667, 4.028579)" fill-opacity="1" fill="#cda85e" fill-rule="evenodd" stroke-linejoin="round" d="M 193.511012 347.995737 L 183.003503 368.236036 L 204.738213 380.976367 L 213.758357 368.981225 C 215.41365 366.361044 217.30884 362.394715 212.990685 359.24569 L 193.511012 347.995737 " stroke="#cda85e" stroke-width="1.88" stroke-opacity="1" stroke-miterlimit="1.5"/><path stroke-linecap="round" transform="matrix(0.16283, 0, 0, 0.162501, 6.404667, 4.028579)" fill-opacity="1" fill="#cda85e" fill-rule="evenodd" stroke-linejoin="round" d="M 160.860967 347.995737 L 150.377448 368.236036 L 172.112158 380.976367 L 181.108313 368.981225 C 182.787595 366.361044 184.658795 362.394715 180.364631 359.24569 L 160.860967 347.995737 " stroke="#cda85e" stroke-width="1.88" stroke-opacity="1" stroke-miterlimit="1.5"/><path stroke-linecap="round" transform="matrix(0.16283, 0, 0, 0.162501, 6.404667, 4.028579)" fill-opacity="1" fill="#cda85e" fill-rule="evenodd" stroke-linejoin="round" d="M 419.998204 56.242163 C 417.191403 35.32879 410.810131 17.396173 402.005894 1.482779 C 375.353286 -8.685447 412.345475 125.520716 407.259648 228.741434 C 401.022314 253.452868 369.979583 254.510555 333.011385 273.741243 C 290.549534 306.962257 260.202505 360.255301 234.749385 329.245816 C 229.927446 308.428597 233.070103 285.279656 245.256894 259.486496 C 212.079075 319.173744 230.647138 371.745637 269.990322 356.240895 C 307.726192 341.36115 308.85371 304.029577 363.742249 284.991196 C 447.394493 255.976895 424.14843 188.140644 411.002049 47.227778 L 419.998204 56.242163 " stroke="#cda85e" stroke-width="1.88" stroke-opacity="1" stroke-miterlimit="1.5"/><path fill="#cda85e" d="M 80.53125 18.40625 C 80.261719 15.480469 78.8125 11.824219 77.234375 8.902344 C 72.394531 8.8125 79.355469 26.4375 78.210938 53.628906 C 81.277344 46.804688 80.277344 31.488281 78.457031 16.945312 Z M 80.53125 18.40625 " fill-opacity="1" fill-rule="evenodd"/><path fill="#cda85e" d="M 80.53125 18.40625 C 80.261719 15.480469 78.8125 11.824219 77.234375 8.902344 C 72.394531 8.8125 79.355469 26.4375 78.210938 53.628906 C 81.277344 46.804688 80.277344 31.488281 78.457031 16.945312 Z M 80.148438 17.761719 L 78.632812 16.695312 C 78.535156 16.625 78.402344 16.621094 78.300781 16.683594 C 78.195312 16.746094 78.140625 16.863281 78.152344 16.984375 C 79.242188 25.695312 80.039062 34.679688 79.839844 41.949219 C 79.738281 45.792969 79.355469 49.152344 78.585938 51.726562 C 79.109375 33.632812 76.136719 20.007812 75.835938 13.371094 C 75.769531 11.949219 75.824219 10.859375 76.074219 10.128906 C 76.265625 9.582031 76.574219 9.265625 77.054688 9.214844 C 78.460938 11.851562 79.75 15.058594 80.148438 17.761719 Z M 80.148438 17.761719 " fill-opacity="1" fill-rule="evenodd"/><path fill="#cda85e" d="M 98.730469 47.65625 L 97.753906 49.609375 L 81.753906 55.703125 C 81.820312 54.890625 82.210938 54.078125 84.074219 53.265625 Z M 98.730469 47.65625 " fill-opacity="1" fill-rule="evenodd"/><path fill="#cda85e" d="M 98.730469 47.65625 L 97.753906 49.609375 L 81.753906 55.703125 C 81.820312 54.890625 82.210938 54.078125 84.074219 53.265625 Z M 98.105469 48.222656 L 97.53125 49.363281 C 97.53125 49.363281 82.164062 55.21875 82.164062 55.21875 C 82.367188 54.660156 82.894531 54.113281 84.191406 53.546875 C 84.191406 53.546875 98.105469 48.222656 98.105469 48.222656 Z M 98.105469 48.222656 " fill-opacity="1" fill-rule="evenodd"/><path fill="#cda85e" d="M 62.949219 44.730469 L 61.96875 46.683594 L 45.972656 52.777344 C 46.039062 51.964844 46.429688 51.152344 48.292969 50.339844 Z M 62.949219 44.730469 " fill-opacity="1" fill-rule="evenodd"/><path fill="#cda85e" d="M 62.949219 44.730469 L 61.96875 46.683594 L 45.972656 52.777344 C 46.039062 51.964844 46.429688 51.152344 48.292969 50.339844 Z M 62.324219 45.296875 L 61.75 46.441406 C 61.75 46.441406 46.382812 52.292969 46.382812 52.292969 C 46.585938 51.734375 47.113281 51.1875 48.40625 50.621094 C 48.410156 50.621094 62.324219 45.296875 62.324219 45.296875 Z M 62.324219 45.296875 " fill-opacity="1" fill-rule="evenodd"/><path fill="#cda85e" d="M 25.820312 58.015625 L 24.84375 59.96875 L 8.847656 66.0625 C 8.914062 65.25 9.304688 64.4375 11.167969 63.625 Z M 25.820312 58.015625 " fill-opacity="1" fill-rule="evenodd"/><path fill="#cda85e" d="M 25.820312 58.015625 L 24.84375 59.96875 L 8.847656 66.0625 C 8.914062 65.25 9.304688 64.4375 11.167969 63.625 Z M 25.195312 58.582031 L 24.625 59.722656 C 24.625 59.722656 9.257812 65.578125 9.257812 65.578125 C 9.460938 65.019531 9.988281 64.472656 11.28125 63.90625 C 11.285156 63.90625 25.195312 58.582031 25.195312 58.582031 Z M 25.195312 58.582031 " fill-opacity="1" fill-rule="evenodd"/><path fill="#cda85e" d="M 101.660156 15.910156 C 101.800781 14.433594 102.25 13.261719 105.203125 13.410156 C 107.6875 13.535156 108.214844 15.042969 107.15625 16.214844 C 105.351562 18.207031 103.058594 18.730469 101.414062 18.773438 L 105.691406 16.089844 Z M 101.660156 15.910156 " fill-opacity="1" fill-rule="evenodd"/><path fill="#cda85e" d="M 101.660156 15.910156 C 101.800781 14.433594 102.25 13.261719 105.203125 13.410156 C 107.6875 13.535156 108.214844 15.042969 107.15625 16.214844 C 105.351562 18.207031 103.058594 18.730469 101.414062 18.773438 L 105.691406 16.089844 Z M 102 15.617188 C 102.074219 15.089844 102.214844 14.617188 102.585938 14.273438 C 103.042969 13.851562 103.832031 13.648438 105.1875 13.714844 C 106.285156 13.769531 106.96875 14.09375 107.242188 14.570312 C 107.492188 15.003906 107.355469 15.539062 106.929688 16.007812 C 105.625 17.449219 104.054688 18.089844 102.683594 18.339844 C 102.683594 18.339844 105.851562 16.351562 105.851562 16.351562 C 105.964844 16.277344 106.019531 16.144531 105.984375 16.015625 C 105.953125 15.886719 105.835938 15.792969 105.703125 15.785156 Z M 102 15.617188 " fill-opacity="1" fill-rule="evenodd"/><path fill="#cda85e" d="M 32.292969 26.890625 C 32.4375 25.414062 32.886719 24.242188 35.835938 24.390625 C 38.324219 24.515625 38.847656 26.023438 37.789062 27.195312 C 35.984375 29.1875 33.691406 29.710938 32.050781 29.753906 L 36.324219 27.074219 Z M 32.292969 26.890625 " fill-opacity="1" fill-rule="evenodd"/><path fill="#cda85e" d="M 32.292969 26.890625 C 32.4375 25.414062 32.886719 24.242188 35.835938 24.390625 C 38.324219 24.515625 38.847656 26.023438 37.789062 27.195312 C 35.984375 29.1875 33.691406 29.710938 32.050781 29.753906 L 36.324219 27.074219 Z M 32.636719 26.601562 C 32.707031 26.070312 32.847656 25.597656 33.21875 25.253906 C 33.675781 24.832031 34.464844 24.628906 35.820312 24.695312 C 36.921875 24.75 37.605469 25.074219 37.878906 25.554688 C 38.128906 25.988281 37.988281 26.519531 37.5625 26.988281 C 36.257812 28.429688 34.6875 29.070312 33.316406 29.320312 C 33.316406 29.320312 36.488281 27.332031 36.488281 27.332031 C 36.601562 27.257812 36.652344 27.125 36.621094 26.996094 C 36.585938 26.867188 36.472656 26.773438 36.339844 26.769531 Z M 32.636719 26.601562 " fill-opacity="1" fill-rule="evenodd"/><path stroke-linecap="round" transform="matrix(0.16283, 0, 0, 0.162501, 6.404667, 4.028579)" fill-opacity="1" fill="#cda85e" fill-rule="evenodd" stroke-linejoin="round" d="M 733.496204 45.7374 L 731.241168 53.237368 L 630.00444 94.487194 C 629.236768 88.333373 632.259476 82.900704 642.742995 79.487257 L 733.496204 45.7374 " stroke="#cda85e" stroke-width="1.88" stroke-opacity="1" stroke-miterlimit="1.5"/><path stroke-linecap="round" transform="matrix(0.16283, 0, 0, 0.162501, 6.404667, 4.028579)" fill-opacity="1" fill="#cda85e" fill-rule="evenodd" stroke-linejoin="round" d="M 383.46182 42.780681 L 381.206784 50.28065 L 279.946066 91.530475 C 279.202384 85.352617 282.225092 79.943986 292.708611 76.530539 L 383.46182 42.780681 " stroke="#cda85e" stroke-width="1.88" stroke-opacity="1" stroke-miterlimit="1.5"/><path fill="#cda85e" d="M 136.542969 17.914062 C 136.757812 16.261719 135.804688 12.339844 133.535156 8.292969 C 129.554688 11.097656 136.464844 34.015625 134.390625 53.507812 C 138.105469 48.527344 137.183594 44.488281 135.238281 17.1875 C 135.796875 16.980469 136.265625 17.230469 136.542969 17.914062 Z M 136.542969 17.914062 " fill-opacity="1" fill-rule="evenodd"/><path fill="#cda85e" d="M 136.542969 17.914062 C 136.757812 16.261719 135.804688 12.339844 133.535156 8.292969 C 129.554688 11.097656 136.464844 34.015625 134.390625 53.507812 C 138.105469 48.527344 137.183594 44.488281 135.238281 17.1875 C 135.796875 16.980469 136.265625 17.230469 136.542969 17.914062 Z M 136.257812 17.019531 C 136.21875 16.992188 136.183594 16.96875 136.144531 16.949219 C 135.847656 16.785156 135.503906 16.761719 135.128906 16.902344 C 135.003906 16.949219 134.921875 17.074219 134.933594 17.210938 C 135.902344 30.847656 136.621094 38.675781 136.628906 43.71875 C 136.636719 48.011719 136.132812 50.25 134.808594 52.363281 C 135.980469 39.003906 133.183594 24.277344 132.660156 15.59375 C 132.523438 13.332031 132.542969 11.488281 132.835938 10.195312 C 132.972656 9.585938 133.167969 9.101562 133.453125 8.777344 C 135.230469 12.042969 136.144531 15.179688 136.257812 17.019531 Z M 136.257812 17.019531 " fill-opacity="1" fill-rule="evenodd"/><path fill="#cda85e" d="M 148.066406 20.234375 C 148.371094 18.066406 146.9375 16.878906 146.113281 18.285156 C 145.027344 20.132812 144.753906 21.84375 144.648438 23.527344 L 143.183594 19.625 C 142.21875 17.875 140.328125 18.34375 140.25 19.992188 C 140.191406 21.246094 141.1875 21.8125 142.328125 21.320312 C 143.179688 22.625 143.792969 24.128906 144.160156 25.839844 C 145.164062 25.597656 145.675781 23.917969 145.867188 21.320312 C 146.121094 19.394531 146.917969 19.234375 148.066406 20.234375 Z M 148.066406 20.234375 " fill-opacity="1" fill-rule="evenodd"/><path fill="#cda85e" d="M 148.066406 20.234375 C 148.371094 18.066406 146.9375 16.878906 146.113281 18.285156 C 145.027344 20.132812 144.753906 21.84375 144.648438 23.527344 L 143.183594 19.625 C 142.21875 17.875 140.328125 18.34375 140.25 19.992188 C 140.191406 21.246094 141.1875 21.8125 142.328125 21.320312 C 143.179688 22.625 143.792969 24.128906 144.160156 25.839844 C 145.164062 25.597656 145.675781 23.917969 145.867188 21.320312 C 146.121094 19.394531 146.917969 19.234375 148.066406 20.234375 Z M 147.804688 19.652344 C 147.59375 19.511719 147.394531 19.417969 147.214844 19.371094 C 146.957031 19.300781 146.722656 19.3125 146.515625 19.398438 C 146.3125 19.484375 146.128906 19.640625 145.976562 19.890625 C 145.792969 20.191406 145.648438 20.648438 145.566406 21.28125 C 145.566406 21.285156 145.5625 21.292969 145.5625 21.296875 C 145.453125 22.808594 145.234375 24 144.867188 24.761719 C 144.722656 25.050781 144.566406 25.273438 144.375 25.410156 C 143.992188 23.8125 143.394531 22.394531 142.582031 21.152344 C 142.5 21.027344 142.34375 20.980469 142.207031 21.039062 C 141.742188 21.238281 141.3125 21.242188 141 21.050781 C 140.699219 20.867188 140.53125 20.5 140.554688 20.007812 C 140.585938 19.351562 140.957031 18.917969 141.4375 18.835938 C 141.933594 18.75 142.503906 19.039062 142.902344 19.753906 C 142.902344 19.753906 144.359375 23.632812 144.359375 23.632812 C 144.410156 23.769531 144.550781 23.847656 144.691406 23.828125 C 144.835938 23.804688 144.941406 23.6875 144.953125 23.546875 C 145.054688 21.90625 145.320312 20.238281 146.375 18.441406 C 146.527344 18.183594 146.695312 18.027344 146.875 17.988281 C 147.027344 17.957031 147.175781 18.023438 147.304688 18.144531 C 147.605469 18.421875 147.804688 18.957031 147.804688 19.652344 Z M 147.804688 19.652344 " fill-opacity="1" fill-rule="evenodd"/><path fill="#cda85e" d="M 89.9375 20.234375 C 90.242188 18.066406 88.808594 16.878906 87.984375 18.285156 C 86.898438 20.132812 86.621094 21.84375 86.515625 23.527344 L 85.050781 19.625 C 84.089844 17.875 82.199219 18.34375 82.121094 19.992188 C 82.0625 21.246094 83.058594 21.8125 84.195312 21.320312 C 85.050781 22.625 85.664062 24.128906 86.027344 25.839844 C 87.035156 25.597656 87.546875 23.917969 87.738281 21.320312 C 87.992188 19.394531 88.785156 19.234375 89.9375 20.234375 Z M 89.9375 20.234375 " fill-opacity="1" fill-rule="evenodd"/><path fill="#cda85e" d="M 89.9375 20.234375 C 90.242188 18.066406 88.808594 16.878906 87.984375 18.285156 C 86.898438 20.132812 86.621094 21.84375 86.515625 23.527344 L 85.050781 19.625 C 84.089844 17.875 82.199219 18.34375 82.121094 19.992188 C 82.0625 21.246094 83.058594 21.8125 84.195312 21.320312 C 85.050781 22.625 85.664062 24.128906 86.027344 25.839844 C 87.035156 25.597656 87.546875 23.917969 87.738281 21.320312 C 87.992188 19.394531 88.785156 19.234375 89.9375 20.234375 Z M 89.671875 19.652344 C 89.464844 19.511719 89.265625 19.417969 89.082031 19.371094 C 88.824219 19.300781 88.59375 19.3125 88.382812 19.398438 C 88.183594 19.484375 88 19.640625 87.847656 19.890625 C 87.664062 20.191406 87.519531 20.648438 87.433594 21.28125 C 87.433594 21.285156 87.433594 21.292969 87.433594 21.296875 C 87.320312 22.808594 87.105469 24 86.734375 24.761719 C 86.59375 25.050781 86.433594 25.273438 86.246094 25.410156 C 85.863281 23.8125 85.265625 22.394531 84.453125 21.152344 C 84.371094 21.027344 84.210938 20.980469 84.074219 21.039062 C 83.613281 21.238281 83.179688 21.242188 82.871094 21.050781 C 82.566406 20.867188 82.402344 20.5 82.425781 20.007812 C 82.457031 19.351562 82.828125 18.917969 83.304688 18.835938 C 83.804688 18.75 84.371094 19.039062 84.773438 19.753906 C 84.773438 19.753906 86.230469 23.632812 86.230469 23.632812 C 86.28125 23.769531 86.417969 23.847656 86.5625 23.828125 C 86.703125 23.804688 86.8125 23.6875 86.820312 23.546875 C 86.925781 21.90625 87.1875 20.238281 88.246094 18.441406 C 88.398438 18.183594 88.5625 18.027344 88.742188 17.988281 C 88.894531 17.957031 89.042969 18.023438 89.175781 18.144531 C 89.476562 18.421875 89.675781 18.957031 89.671875 19.652344 Z M 89.671875 19.652344 " fill-opacity="1" fill-rule="evenodd"/><path fill="#cda85e" d="M 47.433594 21.460938 C 47.738281 19.289062 46.308594 18.105469 45.480469 19.511719 C 44.394531 21.355469 44.121094 23.066406 44.015625 24.75 L 42.550781 20.851562 C 41.585938 19.101562 39.695312 19.566406 39.617188 21.214844 C 39.558594 22.472656 40.554688 23.035156 41.695312 22.542969 C 42.546875 23.847656 43.160156 25.355469 43.527344 27.066406 C 44.53125 26.824219 45.042969 25.144531 45.234375 22.542969 C 45.488281 20.621094 46.285156 20.457031 47.433594 21.460938 Z M 47.433594 21.460938 " fill-opacity="1" fill-rule="evenodd"/><path fill="#cda85e" d="M 47.433594 21.460938 C 47.738281 19.289062 46.308594 18.105469 45.480469 19.511719 C 44.394531 21.355469 44.121094 23.066406 44.015625 24.75 L 42.550781 20.851562 C 41.585938 19.101562 39.695312 19.566406 39.617188 21.214844 C 39.558594 22.472656 40.554688 23.035156 41.695312 22.542969 C 42.546875 23.847656 43.160156 25.355469 43.527344 27.066406 C 44.53125 26.824219 45.042969 25.144531 45.234375 22.542969 C 45.488281 20.621094 46.285156 20.457031 47.433594 21.460938 Z M 47.171875 20.875 C 46.960938 20.738281 46.761719 20.644531 46.582031 20.59375 C 46.324219 20.523438 46.089844 20.535156 45.882812 20.625 C 45.679688 20.707031 45.496094 20.863281 45.34375 21.113281 C 45.160156 21.417969 45.015625 21.871094 44.933594 22.503906 C 44.933594 22.511719 44.929688 22.515625 44.929688 22.523438 C 44.820312 24.03125 44.605469 25.222656 44.234375 25.984375 C 44.089844 26.273438 43.933594 26.496094 43.742188 26.636719 C 43.363281 25.035156 42.761719 23.617188 41.949219 22.378906 C 41.867188 22.253906 41.710938 22.207031 41.574219 22.265625 C 41.109375 22.464844 40.679688 22.46875 40.367188 22.277344 C 40.066406 22.089844 39.902344 21.722656 39.921875 21.230469 C 39.953125 20.578125 40.324219 20.140625 40.804688 20.058594 C 41.300781 19.972656 41.871094 20.265625 42.269531 20.976562 C 42.269531 20.980469 43.730469 24.859375 43.730469 24.859375 C 43.777344 24.992188 43.917969 25.074219 44.058594 25.050781 C 44.203125 25.03125 44.3125 24.914062 44.320312 24.769531 C 44.421875 23.128906 44.6875 21.460938 45.742188 19.664062 C 45.894531 19.40625 46.0625 19.253906 46.242188 19.214844 C 46.394531 19.183594 46.542969 19.246094 46.671875 19.367188 C 46.972656 19.644531 47.171875 20.179688 47.171875 20.875 Z M 47.171875 20.875 " fill-opacity="1" fill-rule="evenodd"/><path fill="#cda85e" d="M 172.980469 27.304688 C 172.5 24.898438 170.730469 22.722656 168.949219 21.453125 C 167.46875 22.808594 167.886719 25.136719 168.460938 27.914062 C 169.347656 32.1875 170.789062 34.078125 171.878906 37.054688 C 173.785156 42.246094 168.464844 42.875 165.898438 39.613281 C 162.429688 35.210938 163.621094 27.644531 161.011719 22.183594 C 160.144531 23.167969 159.519531 24.574219 159.300781 26.695312 C 161.070312 28.597656 161.296875 37.582031 159.789062 40.101562 C 158.042969 43.023438 153.402344 43.722656 150.875 40.101562 C 148.40625 36.5625 152.609375 27.796875 151.363281 26.449219 C 150.113281 25.09375 148.011719 27.117188 147.089844 31.449219 C 144.238281 44.839844 141.195312 43.773438 140.128906 39.371094 C 139.484375 36.710938 139.632812 34.3125 139.519531 30.714844 C 133.367188 39.722656 141.351562 50.859375 145.746094 43.390625 C 148.222656 39.1875 147.5625 33.421875 149.53125 30.714844 C 148.316406 36.300781 147.976562 41.425781 149.53125 43.757812 C 151.789062 47.144531 156.449219 47.640625 159.667969 44 C 160.894531 42.613281 161.511719 41.367188 162.109375 38.761719 C 162.445312 40.621094 163.425781 41.855469 164.308594 43.148438 C 166.480469 46.324219 171.699219 47.125 173.621094 42.902344 C 175.238281 39.355469 173.214844 34.507812 170.660156 27.058594 C 171.433594 26.78125 172.207031 26.773438 172.980469 27.304688 Z M 172.980469 27.304688 " fill-opacity="1" fill-rule="evenodd"/><path fill="#cda85e" d="M 172.980469 27.304688 C 172.5 24.898438 170.730469 22.722656 168.949219 21.453125 C 167.46875 22.808594 167.886719 25.136719 168.460938 27.914062 C 169.347656 32.1875 170.789062 34.078125 171.878906 37.054688 C 173.785156 42.246094 168.464844 42.875 165.898438 39.613281 C 162.429688 35.210938 163.621094 27.644531 161.011719 22.183594 C 160.144531 23.167969 159.519531 24.574219 159.300781 26.695312 C 161.070312 28.597656 161.296875 37.582031 159.789062 40.101562 C 158.042969 43.023438 153.402344 43.722656 150.875 40.101562 C 148.40625 36.5625 152.609375 27.796875 151.363281 26.449219 C 150.113281 25.09375 148.011719 27.117188 147.089844 31.449219 C 144.238281 44.839844 141.195312 43.773438 140.128906 39.371094 C 139.484375 36.710938 139.632812 34.3125 139.519531 30.714844 C 133.367188 39.722656 141.351562 50.859375 145.746094 43.390625 C 148.222656 39.1875 147.5625 33.421875 149.53125 30.714844 C 148.316406 36.300781 147.976562 41.425781 149.53125 43.757812 C 151.789062 47.144531 156.449219 47.640625 159.667969 44 C 160.894531 42.613281 161.511719 41.367188 162.109375 38.761719 C 162.445312 40.621094 163.425781 41.855469 164.308594 43.148438 C 166.480469 46.324219 171.699219 47.125 173.621094 42.902344 C 175.238281 39.355469 173.214844 34.507812 170.660156 27.058594 C 171.433594 26.78125 172.207031 26.773438 172.980469 27.304688 Z M 172.519531 26.71875 C 171.863281 26.476562 171.210938 26.535156 170.554688 26.773438 C 170.398438 26.832031 170.316406 27.003906 170.371094 27.160156 C 171.898438 31.609375 173.234375 35.125 173.710938 37.988281 C 174.019531 39.839844 173.964844 41.410156 173.34375 42.777344 C 171.527344 46.757812 166.609375 45.96875 164.5625 42.976562 C 163.699219 41.71875 162.734375 40.519531 162.410156 38.707031 C 162.386719 38.5625 162.261719 38.460938 162.117188 38.457031 C 161.972656 38.453125 161.84375 38.550781 161.8125 38.691406 C 161.230469 41.234375 160.636719 42.445312 159.4375 43.800781 C 156.375 47.265625 151.933594 46.8125 149.785156 43.589844 C 149.191406 42.691406 148.894531 41.363281 148.816406 39.753906 C 148.695312 37.257812 149.109375 34.101562 149.832031 30.78125 C 149.863281 30.640625 149.789062 30.496094 149.65625 30.4375 C 149.523438 30.378906 149.371094 30.421875 149.285156 30.539062 C 148.472656 31.652344 148.085938 33.265625 147.761719 35.082031 C 147.292969 37.699219 146.949219 40.746094 145.484375 43.238281 C 144.664062 44.628906 143.722656 45.347656 142.769531 45.503906 C 141.832031 45.660156 140.902344 45.277344 140.089844 44.527344 C 137.644531 42.265625 136.328125 36.765625 139.238281 31.730469 C 139.308594 34.808594 139.246094 37.019531 139.832031 39.441406 C 140.074219 40.441406 140.417969 41.273438 140.828125 41.824219 C 141.140625 42.242188 141.496094 42.507812 141.871094 42.605469 C 142.488281 42.761719 143.21875 42.476562 143.960938 41.46875 C 145.035156 40.011719 146.234375 36.933594 147.390625 31.511719 C 147.921875 29.011719 148.839844 27.300781 149.765625 26.621094 C 150.023438 26.433594 150.277344 26.332031 150.519531 26.339844 C 150.742188 26.347656 150.953125 26.453125 151.140625 26.65625 C 151.207031 26.730469 151.238281 26.835938 151.261719 26.964844 C 151.296875 27.140625 151.300781 27.355469 151.289062 27.597656 C 151.242188 28.402344 150.996094 29.507812 150.71875 30.753906 C 150.292969 32.664062 149.789062 34.886719 149.777344 36.824219 C 149.769531 38.167969 150 39.378906 150.625 40.273438 C 153.296875 44.105469 158.207031 43.347656 160.054688 40.257812 C 160.976562 38.714844 161.285156 34.792969 160.976562 31.480469 C 160.773438 29.335938 160.304688 27.445312 159.621094 26.597656 C 159.8125 24.882812 160.28125 23.660156 160.9375 22.761719 C 162.066406 25.371094 162.398438 28.414062 162.828125 31.339844 C 163.300781 34.519531 163.890625 37.5625 165.65625 39.800781 C 166.636719 41.046875 167.996094 41.75 169.238281 41.894531 C 170.101562 41.992188 170.910156 41.820312 171.515625 41.382812 C 172.507812 40.664062 172.996094 39.207031 172.167969 36.949219 C 171.082031 33.988281 169.644531 32.105469 168.761719 27.851562 C 168.476562 26.488281 168.230469 25.234375 168.238281 24.152344 C 168.246094 23.238281 168.4375 22.457031 168.980469 21.855469 C 170.472656 22.980469 171.925781 24.742188 172.519531 26.71875 Z M 172.519531 26.71875 " fill-opacity="1" fill-rule="evenodd"/><path stroke-linecap="round" transform="matrix(0.16283, 0, 0, 0.162501, 6.404667, 4.028579)" fill-opacity="1" fill="#cda85e" fill-rule="evenodd" stroke-linejoin="round" d="M 1052.991642 82.660321 C 1050.568677 63.093096 1043.419733 45.857592 1034.999332 29.223047 C 1011.249484 55.208514 1048.241672 145.352363 1040.996769 299.245943 C 1059.372914 268.356651 1054.622944 186.097383 1042.508123 73.766127 C 1046.394461 77.107459 1050.088882 80.256485 1052.991642 82.660321 " stroke="#cda85e" stroke-width="1.88" stroke-opacity="1" stroke-miterlimit="1.5"/><path stroke-linecap="round" transform="matrix(0.16283, 0, 0, 0.162501, 6.404667, 4.028579)" fill-opacity="1" fill="#cda85e" fill-rule="evenodd" stroke-linejoin="round" d="M 1262.254196 289.486369 L 1251.746687 309.726668 L 1273.505387 322.491037 L 1282.501542 310.495896 C 1284.156834 307.851676 1286.052024 303.909385 1281.757859 300.736322 L 1262.254196 289.486369 " stroke="#cda85e" stroke-width="1.88" stroke-opacity="1" stroke-miterlimit="1.5"/><path stroke-linecap="round" transform="matrix(0.16283, 0, 0, 0.162501, 6.404667, 4.028579)" fill-opacity="1" fill="#cda85e" fill-rule="evenodd" stroke-linejoin="round" d="M 483.738959 175.472428 L 473.25544 195.736766 L 494.99015 208.477096 L 504.010294 196.481955 C 505.665587 193.861773 507.560776 189.895444 503.242622 186.722381 L 483.738959 175.472428 " stroke="#cda85e" stroke-width="1.88" stroke-opacity="1" stroke-miterlimit="1.5"/><path stroke-linecap="round" transform="matrix(0.16283, 0, 0, 0.162501, 6.404667, 4.028579)" fill-opacity="1" fill="#cda85e" fill-rule="evenodd" stroke-linejoin="round" d="M 1170.757305 340.495769 C 1170.997202 344.341906 1171.117151 348.356312 1167.758586 349.486115 L 1067.193571 388.476335 C 1068.584976 383.115781 1071.12789 378.524454 1076.261695 375.736004 L 1170.757305 340.495769 " stroke="#cda85e" stroke-width="1.88" stroke-opacity="1" stroke-miterlimit="1.5"/><path fill="#cda85e" d="M 197.402344 28.644531 C 196.664062 29.035156 196.351562 29.550781 196.0625 30.472656 C 197.734375 30.554688 199.03125 30.511719 199.96875 30.351562 C 199.667969 31.414062 198.074219 32.375 195.816406 33.277344 C 198.234375 33.035156 201.15625 33.316406 202.167969 28.886719 C 200.742188 28.007812 198.894531 27.851562 197.402344 28.644531 Z M 197.402344 28.644531 " fill-opacity="1" fill-rule="evenodd"/><path fill="#cda85e" d="M 197.402344 28.644531 C 196.664062 29.035156 196.351562 29.550781 196.0625 30.472656 C 197.734375 30.554688 199.03125 30.511719 199.96875 30.351562 C 199.667969 31.414062 198.074219 32.375 195.816406 33.277344 C 198.234375 33.035156 201.15625 33.316406 202.167969 28.886719 C 200.742188 28.007812 198.894531 27.851562 197.402344 28.644531 Z M 197.546875 28.914062 C 198.878906 28.207031 200.511719 28.3125 201.816406 29.035156 C 201.527344 30.183594 201.105469 30.980469 200.582031 31.535156 C 199.949219 32.210938 199.179688 32.523438 198.375 32.691406 C 198.121094 32.746094 197.863281 32.785156 197.601562 32.816406 C 198.246094 32.492188 198.792969 32.160156 199.21875 31.820312 C 199.769531 31.375 200.128906 30.910156 200.261719 30.433594 C 200.292969 30.332031 200.265625 30.226562 200.195312 30.148438 C 200.125 30.070312 200.019531 30.03125 199.917969 30.050781 C 199.070312 30.195312 197.929688 30.242188 196.484375 30.1875 C 196.714844 29.585938 196.992188 29.207031 197.546875 28.914062 Z M 197.546875 28.914062 " fill-opacity="1" fill-rule="evenodd"/><path stroke-linecap="round" transform="matrix(0.16283, 0, 0, 0.162501, 6.404667, 4.028579)" fill-opacity="1" fill="#cda85e" fill-rule="evenodd" stroke-linejoin="round" d="M 1051.504277 338.236163 C 1051.168421 334.942908 1052.631795 332.70734 1055.99036 329.991006 C 1060.068617 330.303504 1064.722627 331.289077 1066.497869 335.231368 C 1068.129171 338.813084 1066.737766 340.856344 1063.49915 342.731336 C 1059.396904 345.111134 1056.494144 345.615939 1053.759313 346.48132 C 1053.807293 346.697666 1059.085037 367.058156 1055.99036 383.235973 C 1055.702483 371.361023 1051.576247 362.587022 1049.992923 350.231305 C 1049.585098 346.914011 1049.561108 344.149599 1052.247959 341.986147 C 1055.126729 339.678465 1056.997929 340.231347 1058.245396 338.236163 C 1058.101457 334.990984 1055.342637 335.760212 1051.504277 338.236163 " stroke="#cda85e" stroke-width="1.88" stroke-opacity="1" stroke-miterlimit="1.5"/><path stroke-linecap="round" transform="matrix(0.16283, 0, 0, 0.162501, 6.404667, 4.028579)" fill-opacity="1" fill="#cda85e" fill-rule="evenodd" stroke-linejoin="round" d="M 594.739513 272.972016 C 594.403657 269.702799 595.867031 267.443193 599.249586 264.726858 C 603.327842 265.063395 607.957863 266.048968 609.757094 269.991259 C 611.364407 273.572975 609.973002 275.616235 606.758376 277.491228 C 602.65613 279.871025 599.729381 280.351792 596.99455 281.241212 C 597.042529 281.457557 602.344263 301.818048 599.249586 317.995864 C 598.961709 306.096876 594.811483 297.322874 593.252149 284.991196 C 592.820334 281.673902 592.820334 278.909491 595.507185 276.722 C 598.361965 274.414317 600.257155 274.991238 601.504622 272.972016 C 601.360683 269.726837 598.601863 270.520103 594.739513 272.972016 " stroke="#cda85e" stroke-width="1.88" stroke-opacity="1" stroke-miterlimit="1.5"/><path stroke-linecap="round" transform="matrix(0.16283, 0, 0, 0.162501, 6.404667, 4.028579)" fill-opacity="1" fill="#cda85e" fill-rule="evenodd" stroke-linejoin="round" d="M 130.489949 302.995927 C 130.154092 299.702672 131.617467 297.443066 135.000021 294.726732 C 139.078278 295.063269 143.708299 296.048841 145.50753 299.991132 C 147.114843 303.572848 145.723438 305.616109 142.508812 307.491101 C 138.406565 309.870898 135.479816 310.351665 132.744985 311.241085 C 132.792964 311.45743 138.094698 331.817921 135.000021 347.995737 C 134.712144 336.096749 130.561918 327.322748 129.002585 314.991069 C 128.570769 311.673775 128.570769 308.909364 131.257621 306.745911 C 134.1124 304.414191 136.00759 304.991111 137.255057 302.995927 C 137.111119 299.72671 134.352298 300.519976 130.489949 302.995927 " stroke="#cda85e" stroke-width="1.88" stroke-opacity="1" stroke-miterlimit="1.5"/><path fill="#cda85e" d="M 205.21875 49.730469 C 205.78125 50.476562 205.761719 51.765625 205.21875 52.289062 C 204.527344 52.957031 203.835938 52.941406 203.144531 52.289062 C 202.457031 54.171875 199.914062 52.871094 198.625 53.265625 C 196.566406 53.890625 194.695312 58.132812 191.175781 58.261719 C 194.34375 56.898438 196.816406 52.363281 199.234375 51.921875 C 200.191406 51.777344 201.164062 51.773438 202.167969 52.046875 C 202.445312 51.460938 202.664062 51.09375 203.023438 50.21875 C 203.175781 52.15625 205.054688 51.820312 205.21875 49.730469 Z M 205.21875 49.730469 " fill-opacity="1" fill-rule="evenodd"/><path fill="#cda85e" d="M 205.21875 49.730469 C 205.78125 50.476562 205.761719 51.765625 205.21875 52.289062 C 204.527344 52.957031 203.835938 52.941406 203.144531 52.289062 C 202.457031 54.171875 199.914062 52.871094 198.625 53.265625 C 196.566406 53.890625 194.695312 58.132812 191.175781 58.261719 C 194.34375 56.898438 196.816406 52.363281 199.234375 51.921875 C 200.191406 51.777344 201.164062 51.773438 202.167969 52.046875 C 202.445312 51.460938 202.664062 51.09375 203.023438 50.21875 C 203.175781 52.15625 205.054688 51.820312 205.21875 49.730469 Z M 205.300781 50.71875 C 205.335938 50.925781 205.339844 51.140625 205.3125 51.339844 C 205.277344 51.632812 205.179688 51.902344 205.007812 52.070312 C 204.730469 52.335938 204.460938 52.480469 204.183594 52.480469 C 203.90625 52.476562 203.632812 52.332031 203.355469 52.066406 C 203.28125 51.996094 203.175781 51.96875 203.074219 51.992188 C 202.972656 52.015625 202.890625 52.089844 202.855469 52.183594 C 202.566406 52.976562 201.867188 53.066406 201.125 53.03125 C 200.59375 53.007812 200.039062 52.914062 199.539062 52.886719 C 199.167969 52.867188 198.824219 52.882812 198.535156 52.972656 C 198.089844 53.109375 197.644531 53.398438 197.199219 53.78125 C 196.578125 54.3125 195.9375 55.035156 195.234375 55.734375 C 194.605469 56.355469 193.921875 56.964844 193.144531 57.390625 C 194.335938 56.4375 195.4375 55.207031 196.480469 54.167969 C 197.453125 53.199219 198.367188 52.394531 199.285156 52.222656 C 200.199219 52.085938 201.128906 52.078125 202.085938 52.339844 C 202.230469 52.378906 202.378906 52.308594 202.441406 52.175781 C 202.621094 51.804688 202.773438 51.519531 202.953125 51.136719 C 203.238281 51.683594 203.726562 51.875 204.179688 51.78125 C 204.59375 51.699219 205.039062 51.34375 205.300781 50.71875 Z M 205.300781 50.71875 " fill-opacity="1" fill-rule="evenodd"/><g clip-path="url(#4fadbc213d)"><path fill="#cda85e" d="M 220.851562 55.703125 L 204.730469 61.796875 C 204.183594 62.414062 203.894531 63.21875 204 63.746094 L 220.242188 57.285156 C 220.566406 56.945312 220.757812 56.320312 220.851562 55.703125 Z M 220.851562 55.703125 " fill-opacity="1" fill-rule="evenodd"/><path fill="#cda85e" d="M 220.851562 55.703125 L 204.730469 61.796875 C 204.183594 62.414062 203.894531 63.21875 204 63.746094 L 220.242188 57.285156 C 220.566406 56.945312 220.757812 56.320312 220.851562 55.703125 Z M 220.445312 56.179688 C 220.359375 56.515625 220.238281 56.820312 220.0625 57.027344 C 220.0625 57.027344 204.296875 63.296875 204.296875 63.296875 C 204.359375 62.90625 204.582031 62.441406 204.910156 62.054688 Z M 220.445312 56.179688 " fill-opacity="1" fill-rule="evenodd"/></g><path stroke-linecap="round" transform="matrix(0.16283, 0, 0, 0.162501, 6.404667, 4.028579)" fill-opacity="1" fill="#cda85e" fill-rule="evenodd" stroke-linejoin="round" d="M 1131.006296 89.222793 C 1134.580768 94.751616 1139.570635 91.362207 1138.491096 85.472809 C 1137.147671 78.044955 1129.039136 77.516112 1125.752541 83.237241 C 1120.858633 91.722782 1119.491217 99.895825 1119.011423 107.972714 L 1110.75895 89.99202 C 1103.346118 76.770922 1090.655543 91.02567 1100.251441 97.491989 C 1103.010262 99.342942 1105.745093 99.246789 1108.503914 97.491989 C 1113.061966 103.790039 1114.357412 110.280396 1114.50135 116.987098 C 1114.693268 126.097637 1085.833604 146.650435 1067.193571 155.977318 C 1086.025522 149.510999 1122.825792 139.511042 1123.497505 101.987162 C 1123.665433 92.804508 1127.839649 87.780491 1131.006296 89.222793 " stroke="#cda85e" stroke-width="1.88" stroke-opacity="1" stroke-miterlimit="1.5"/><path stroke-linecap="round" transform="matrix(0.16283, 0, 0, 0.162501, 6.404667, 4.028579)" fill-opacity="1" fill="#cda85e" fill-rule="evenodd" stroke-linejoin="round" d="M 121.157938 176.241656 C 124.73241 181.74644 129.698287 178.357031 128.642738 172.491671 C 127.299313 165.063818 119.190778 164.510936 115.904183 170.232066 C 111.010275 178.717607 109.64286 186.890649 109.163065 194.991576 L 100.886602 176.986845 C 93.49776 163.765747 80.807185 178.020494 90.403083 184.486813 C 93.137914 186.337767 95.896735 186.241613 98.655556 184.486813 C 103.189618 190.808902 104.485064 197.275221 104.652992 203.981923 C 104.84491 213.092461 75.961256 233.645259 57.321224 242.972143 C 76.153174 236.505824 112.977434 226.505866 113.649147 188.981986 C 113.817075 179.823371 117.991291 174.799354 121.157938 176.241656 " stroke="#cda85e" stroke-width="1.88" stroke-opacity="1" stroke-miterlimit="1.5"/><path fill="#cda85e" d="M 162.355469 14.507812 C 162.535156 15.976562 163.429688 16.84375 163.453125 18.527344 C 163.488281 20.738281 161.503906 21.929688 160.277344 19.625 C 159.84375 21.703125 157.730469 21.921875 157.226562 19.992188 C 156.972656 19.027344 157.554688 18.015625 157.714844 16.925781 C 157.824219 16.1875 157.160156 17.421875 156.492188 16.925781 C 156.605469 16.492188 156.882812 16.027344 157.59375 15.480469 C 158.175781 15.699219 158.980469 16.65625 158.324219 18.652344 C 157.722656 20.484375 159.652344 20.007812 159.667969 17.414062 C 159.671875 16.675781 159.757812 14.925781 160.277344 14.507812 C 160.832031 16.390625 160.632812 16.835938 161.011719 18.042969 C 161.53125 19.707031 162.808594 19.3125 162.355469 17.796875 C 162.046875 16.773438 161.414062 15.503906 162.355469 14.507812 Z M 162.355469 14.507812 " fill-opacity="1" fill-rule="evenodd"/><path fill="#cda85e" d="M 162.355469 14.507812 C 162.535156 15.976562 163.429688 16.84375 163.453125 18.527344 C 163.488281 20.738281 161.503906 21.929688 160.277344 19.625 C 159.84375 21.703125 157.730469 21.921875 157.226562 19.992188 C 156.972656 19.027344 157.554688 18.015625 157.714844 16.925781 C 157.824219 16.1875 157.160156 17.421875 156.492188 16.925781 C 156.605469 16.492188 156.882812 16.027344 157.59375 15.480469 C 158.175781 15.699219 158.980469 16.65625 158.324219 18.652344 C 157.722656 20.484375 159.652344 20.007812 159.667969 17.414062 C 159.671875 16.675781 159.757812 14.925781 160.277344 14.507812 C 160.832031 16.390625 160.632812 16.835938 161.011719 18.042969 C 161.53125 19.707031 162.808594 19.3125 162.355469 17.796875 C 162.046875 16.773438 161.414062 15.503906 162.355469 14.507812 Z M 160.1875 15.351562 C 160.492188 16.628906 160.398438 17.105469 160.71875 18.132812 C 160.902344 18.71875 161.179688 19.082031 161.445312 19.261719 C 161.679688 19.421875 161.917969 19.460938 162.121094 19.410156 C 162.335938 19.359375 162.523438 19.210938 162.640625 18.964844 C 162.769531 18.6875 162.8125 18.261719 162.648438 17.710938 C 162.5 17.210938 162.265625 16.65625 162.191406 16.101562 C 162.152344 15.84375 162.152344 15.585938 162.222656 15.339844 C 162.347656 15.761719 162.515625 16.152344 162.679688 16.550781 C 162.917969 17.128906 163.136719 17.734375 163.148438 18.535156 C 163.160156 19.238281 162.949219 19.828125 162.609375 20.195312 C 162.414062 20.410156 162.171875 20.546875 161.914062 20.566406 C 161.449219 20.597656 160.960938 20.257812 160.546875 19.484375 C 160.488281 19.371094 160.363281 19.304688 160.234375 19.324219 C 160.109375 19.34375 160.007812 19.4375 159.980469 19.5625 C 159.796875 20.4375 159.289062 20.949219 158.742188 21.007812 C 158.222656 21.066406 157.722656 20.691406 157.523438 19.914062 C 157.410156 19.480469 157.492188 19.039062 157.609375 18.582031 C 157.746094 18.0625 157.933594 17.527344 158.015625 16.972656 C 158.058594 16.683594 157.976562 16.542969 157.921875 16.484375 C 157.828125 16.390625 157.695312 16.339844 157.511719 16.410156 C 157.425781 16.445312 157.285156 16.550781 157.121094 16.644531 C 157.050781 16.6875 156.96875 16.730469 156.882812 16.738281 C 157.007812 16.460938 157.234375 16.167969 157.632812 15.839844 C 158.101562 16.128906 158.550781 16.976562 158.035156 18.554688 C 157.90625 18.949219 157.882812 19.25 157.917969 19.464844 C 157.953125 19.671875 158.039062 19.816406 158.140625 19.910156 C 158.339844 20.085938 158.628906 20.121094 158.941406 19.941406 C 159.394531 19.683594 159.964844 18.84375 159.972656 17.417969 C 159.976562 16.988281 160.007812 16.203125 160.140625 15.558594 C 160.15625 15.488281 160.171875 15.417969 160.1875 15.351562 Z M 160.1875 15.351562 " fill-opacity="1" fill-rule="evenodd"/><path fill="#cda85e" d="M 120.589844 18.046875 C 120.769531 19.515625 121.664062 20.382812 121.6875 22.070312 C 121.71875 24.277344 119.738281 25.46875 118.511719 23.167969 C 118.078125 25.246094 115.964844 25.460938 115.460938 23.53125 C 115.207031 22.566406 115.789062 21.554688 115.949219 20.46875 C 116.058594 19.730469 115.394531 20.960938 114.726562 20.46875 C 114.839844 20.03125 115.117188 19.566406 115.828125 19.023438 C 116.410156 19.242188 117.214844 20.195312 116.558594 22.191406 C 115.957031 24.023438 117.886719 23.546875 117.902344 20.953125 C 117.90625 20.214844 117.992188 18.464844 118.511719 18.046875 C 119.066406 19.929688 118.867188 20.375 119.246094 21.582031 C 119.765625 23.25 121.042969 22.855469 120.589844 21.339844 C 120.28125 20.3125 119.648438 19.046875 120.589844 18.046875 Z M 120.589844 18.046875 " fill-opacity="1" fill-rule="evenodd"/><path fill="#cda85e" d="M 120.589844 18.046875 C 120.769531 19.515625 121.664062 20.382812 121.6875 22.070312 C 121.71875 24.277344 119.738281 25.46875 118.511719 23.167969 C 118.078125 25.246094 115.964844 25.460938 115.460938 23.53125 C 115.207031 22.566406 115.789062 21.554688 115.949219 20.46875 C 116.058594 19.730469 115.394531 20.960938 114.726562 20.46875 C 114.839844 20.03125 115.117188 19.566406 115.828125 19.023438 C 116.410156 19.242188 117.214844 20.195312 116.558594 22.191406 C 115.957031 24.023438 117.886719 23.546875 117.902344 20.953125 C 117.90625 20.214844 117.992188 18.464844 118.511719 18.046875 C 119.066406 19.929688 118.867188 20.375 119.246094 21.582031 C 119.765625 23.25 121.042969 22.855469 120.589844 21.339844 C 120.28125 20.3125 119.648438 19.046875 120.589844 18.046875 Z M 118.421875 18.890625 C 118.726562 20.171875 118.632812 20.648438 118.953125 21.671875 C 119.136719 22.261719 119.414062 22.621094 119.679688 22.800781 C 119.914062 22.964844 120.152344 23 120.355469 22.949219 C 120.570312 22.898438 120.757812 22.75 120.875 22.503906 C 121.003906 22.230469 121.046875 21.800781 120.882812 21.25 C 120.734375 20.753906 120.5 20.195312 120.421875 19.640625 C 120.386719 19.382812 120.386719 19.128906 120.457031 18.878906 C 120.582031 19.304688 120.75 19.691406 120.914062 20.09375 C 121.152344 20.671875 121.371094 21.273438 121.382812 22.074219 C 121.394531 22.777344 121.183594 23.367188 120.84375 23.738281 C 120.648438 23.953125 120.40625 24.089844 120.148438 24.105469 C 119.683594 24.140625 119.195312 23.796875 118.78125 23.023438 C 118.722656 22.910156 118.597656 22.847656 118.46875 22.863281 C 118.34375 22.882812 118.242188 22.980469 118.214844 23.105469 C 118.03125 23.980469 117.523438 24.488281 116.976562 24.550781 C 116.457031 24.609375 115.957031 24.230469 115.753906 23.457031 C 115.644531 23.023438 115.726562 22.578125 115.84375 22.121094 C 115.980469 21.601562 116.167969 21.066406 116.25 20.511719 C 116.292969 20.226562 116.210938 20.082031 116.15625 20.027344 C 116.0625 19.929688 115.929688 19.878906 115.746094 19.953125 C 115.660156 19.984375 115.519531 20.089844 115.355469 20.1875 C 115.285156 20.226562 115.203125 20.273438 115.117188 20.28125 C 115.242188 20.003906 115.46875 19.710938 115.867188 19.378906 C 116.335938 19.667969 116.785156 20.519531 116.269531 22.097656 C 116.140625 22.488281 116.117188 22.792969 116.152344 23.007812 C 116.1875 23.210938 116.273438 23.355469 116.375 23.449219 C 116.574219 23.625 116.863281 23.664062 117.175781 23.484375 C 117.628906 23.222656 118.199219 22.382812 118.207031 20.957031 C 118.210938 20.527344 118.242188 19.746094 118.375 19.101562 C 118.390625 19.027344 118.40625 18.957031 118.421875 18.890625 Z M 118.421875 18.890625 " fill-opacity="1" fill-rule="evenodd"/><path fill="#cda85e" d="M 62.789062 18.902344 C 62.96875 20.371094 63.863281 21.238281 63.886719 22.921875 C 63.921875 25.128906 61.941406 26.320312 60.710938 24.019531 C 60.277344 26.097656 58.164062 26.316406 57.660156 24.386719 C 57.40625 23.417969 57.988281 22.410156 58.148438 21.320312 C 58.257812 20.582031 57.59375 21.8125 56.925781 21.320312 C 57.039062 20.886719 57.316406 20.417969 58.027344 19.875 C 58.609375 20.09375 59.414062 21.046875 58.757812 23.042969 C 58.15625 24.878906 60.085938 24.402344 60.101562 21.808594 C 60.105469 21.070312 60.191406 19.316406 60.710938 18.902344 C 61.265625 20.785156 61.066406 21.230469 61.445312 22.433594 C 61.96875 24.101562 63.242188 23.707031 62.789062 22.191406 C 62.480469 21.167969 61.847656 19.898438 62.789062 18.902344 Z M 62.789062 18.902344 " fill-opacity="1" fill-rule="evenodd"/><path fill="#cda85e" d="M 62.789062 18.902344 C 62.96875 20.371094 63.863281 21.238281 63.886719 22.921875 C 63.921875 25.128906 61.941406 26.320312 60.710938 24.019531 C 60.277344 26.097656 58.164062 26.316406 57.660156 24.386719 C 57.40625 23.417969 57.988281 22.410156 58.148438 21.320312 C 58.257812 20.582031 57.59375 21.8125 56.925781 21.320312 C 57.039062 20.886719 57.316406 20.417969 58.027344 19.875 C 58.609375 20.09375 59.414062 21.046875 58.757812 23.042969 C 58.15625 24.878906 60.085938 24.402344 60.101562 21.808594 C 60.105469 21.070312 60.191406 19.316406 60.710938 18.902344 C 61.265625 20.785156 61.066406 21.230469 61.445312 22.433594 C 61.96875 24.101562 63.242188 23.707031 62.789062 22.191406 C 62.480469 21.167969 61.847656 19.898438 62.789062 18.902344 Z M 60.621094 19.746094 C 60.925781 21.023438 60.832031 21.5 61.152344 22.527344 C 61.335938 23.113281 61.613281 23.472656 61.878906 23.65625 C 62.113281 23.816406 62.351562 23.851562 62.554688 23.804688 C 62.769531 23.75 62.957031 23.605469 63.074219 23.359375 C 63.203125 23.082031 63.246094 22.65625 63.082031 22.105469 C 62.933594 21.605469 62.699219 21.050781 62.625 20.496094 C 62.585938 20.238281 62.585938 19.980469 62.65625 19.734375 C 62.78125 20.15625 62.949219 20.546875 63.113281 20.945312 C 63.351562 21.523438 63.570312 22.128906 63.582031 22.925781 C 63.59375 23.632812 63.382812 24.222656 63.042969 24.589844 C 62.847656 24.804688 62.605469 24.941406 62.347656 24.960938 C 61.882812 24.992188 61.394531 24.652344 60.984375 23.875 C 60.921875 23.761719 60.796875 23.699219 60.667969 23.71875 C 60.542969 23.734375 60.441406 23.832031 60.414062 23.957031 C 60.230469 24.832031 59.722656 25.339844 59.175781 25.402344 C 58.65625 25.460938 58.15625 25.085938 57.957031 24.308594 C 57.84375 23.875 57.925781 23.433594 58.042969 22.976562 C 58.179688 22.457031 58.367188 21.917969 58.449219 21.363281 C 58.492188 21.078125 58.410156 20.9375 58.355469 20.878906 C 58.261719 20.785156 58.128906 20.734375 57.945312 20.804688 C 57.859375 20.839844 57.71875 20.945312 57.554688 21.039062 C 57.484375 21.082031 57.402344 21.125 57.316406 21.132812 C 57.441406 20.855469 57.667969 20.5625 58.066406 20.234375 C 58.535156 20.523438 58.984375 21.371094 58.46875 22.949219 C 58.339844 23.339844 58.316406 23.644531 58.351562 23.859375 C 58.386719 24.0625 58.472656 24.207031 58.574219 24.300781 C 58.773438 24.480469 59.0625 24.515625 59.375 24.335938 C 59.828125 24.078125 60.398438 23.238281 60.40625 21.808594 C 60.410156 21.378906 60.441406 20.597656 60.574219 19.953125 C 60.589844 19.882812 60.605469 19.8125 60.621094 19.746094 Z M 60.621094 19.746094 " fill-opacity="1" fill-rule="evenodd"/><path stroke-linecap="round" transform="matrix(0.16283, 0, 0, 0.162501, 6.404667, 4.028579)" fill-opacity="1" fill="#cda85e" fill-rule="evenodd" stroke-linejoin="round" d="M 929.996214 26.24229 C 927.981075 28.021129 926.58967 30.184581 926.253813 32.973031 C 937.600963 39.72781 941.151446 51.242184 939.76004 64.48732 C 944.701928 50.641225 944.222133 36.170133 929.996214 26.24229 " stroke="#cda85e" stroke-width="1.88" stroke-opacity="1" stroke-miterlimit="1.5"/><path fill="#cda85e" d="M 152.585938 48.023438 L 151.976562 49.730469 L 135.730469 56.066406 C 135.375 55.335938 135.71875 54.359375 137.277344 53.75 Z M 152.585938 48.023438 " fill-opacity="1" fill-rule="evenodd"/><path fill="#cda85e" d="M 152.585938 48.023438 L 151.976562 49.730469 L 135.730469 56.066406 C 135.375 55.335938 135.71875 54.359375 137.277344 53.75 Z M 152.074219 48.539062 L 151.734375 49.496094 C 151.734375 49.496094 135.921875 55.664062 135.921875 55.664062 C 135.828125 55.105469 136.257812 54.476562 137.382812 54.035156 Z M 152.074219 48.539062 " fill-opacity="1" fill-rule="evenodd"/><path fill="#cda85e" d="M 131.457031 13.777344 C 131.074219 10.378906 130.183594 6.582031 128.28125 4.269531 C 125.851562 3.667969 127.113281 19.210938 129.015625 39.980469 C 129.230469 42.335938 127.070312 44.0625 125.472656 44.488281 C 117.261719 46.679688 111.675781 52.4375 107.523438 57.53125 C 100.609375 61.574219 99.0625 56.761719 103.125 45.21875 C 98.449219 52.667969 98.449219 61.703125 103.371094 62.160156 C 113.046875 63.0625 109.023438 52.597656 125.839844 48.875 C 128.679688 48.246094 131.363281 45.082031 131.457031 36.808594 L 129.871094 12.3125 Z M 131.457031 13.777344 " fill-opacity="1" fill-rule="evenodd"/><path fill="#cda85e" d="M 131.457031 13.777344 C 131.074219 10.378906 130.183594 6.582031 128.28125 4.269531 C 125.851562 3.667969 127.113281 19.210938 129.015625 39.980469 C 129.230469 42.335938 127.070312 44.0625 125.472656 44.488281 C 117.261719 46.679688 111.675781 52.4375 107.523438 57.53125 C 100.609375 61.574219 99.0625 56.761719 103.125 45.21875 C 98.449219 52.667969 98.449219 61.703125 103.371094 62.160156 C 113.046875 63.0625 109.023438 52.597656 125.839844 48.875 C 128.679688 48.246094 131.363281 45.082031 131.457031 36.808594 L 129.871094 12.3125 Z M 131.050781 12.988281 L 130.078125 12.089844 C 129.984375 12.003906 129.851562 11.984375 129.738281 12.039062 C 129.625 12.09375 129.558594 12.207031 129.566406 12.332031 L 131.152344 36.820312 C 131.105469 40.882812 130.429688 43.691406 129.410156 45.5625 C 128.425781 47.371094 127.121094 48.28125 125.773438 48.578125 C 115.570312 50.835938 112.953125 55.542969 110.378906 58.753906 C 108.742188 60.796875 107.128906 62.203125 103.398438 61.855469 C 101.566406 61.6875 100.492188 60.210938 100.113281 58.089844 C 99.640625 55.476562 100.214844 51.902344 101.789062 48.371094 C 100.828125 51.691406 100.457031 54.285156 100.652344 56.078125 C 100.839844 57.777344 101.539062 58.796875 102.667969 59.128906 C 103.824219 59.46875 105.503906 59.0625 107.675781 57.792969 C 107.707031 57.773438 107.734375 57.75 107.757812 57.722656 C 111.878906 52.671875 117.410156 46.957031 125.554688 44.785156 C 127.257812 44.328125 129.550781 42.46875 129.320312 39.953125 C 127.800781 23.378906 126.683594 10.144531 127.542969 5.820312 C 127.640625 5.328125 127.757812 4.960938 127.914062 4.734375 C 127.976562 4.640625 128.046875 4.574219 128.125 4.5625 C 129.789062 6.652344 130.636719 9.921875 131.050781 12.988281 Z M 131.050781 12.988281 " fill-opacity="1" fill-rule="evenodd"/><path stroke-linecap="round" transform="matrix(0.16283, 0, 0, 0.162501, 6.404667, 4.028579)" fill-opacity="1" fill="#cda85e" fill-rule="evenodd" stroke-linejoin="round" d="M 536.996195 41.987416 C 533.541671 46.386435 531.310625 51.650836 530.255076 57.660426 C 551.845848 76.049772 559.714484 101.241973 556.499858 131.241846 C 569.142454 96.506416 561.537705 65.929622 536.996195 41.987416 " stroke="#cda85e" stroke-width="1.88" stroke-opacity="1" stroke-miterlimit="1.5"/><path fill="#cda85e" d="M 214.988281 29.742188 C 214.207031 27.996094 213.003906 26.246094 211.082031 24.5 C 210.328125 25.09375 210.125 27.117188 210.226562 28.035156 C 210.628906 31.613281 212.636719 38.070312 214.867188 42.171875 C 215.683594 43.675781 211.476562 45.300781 209.617188 43.878906 C 207.921875 42.582031 208.097656 41.683594 208.152344 39.492188 C 206.15625 40.507812 204.285156 46.191406 200.457031 44.609375 C 198.898438 43.964844 198.585938 41.5625 199.601562 40.101562 C 192.449219 48.074219 188.886719 47.402344 185.679688 40.101562 C 185.230469 39.078125 178.617188 42.085938 179.207031 51.679688 C 171.5625 55.960938 162.8125 65.269531 159.136719 63.375 C 157.902344 62.738281 156.066406 60.320312 160.277344 50.339844 C 156.105469 56.167969 153.625 64.375 157.46875 66.792969 C 159.679688 68.179688 164.210938 67.375 167.117188 64.476562 C 174.984375 56.625 177.113281 55.347656 180.429688 55.335938 C 185.15625 64.253906 191.707031 59.191406 188.734375 52.53125 C 186.855469 48.324219 182.605469 52.046875 180.796875 50.339844 C 180.082031 46.578125 182.730469 44.59375 184.582031 44.246094 C 188.007812 52.164062 192.714844 50.867188 197.527344 44.367188 C 198.136719 46.441406 197.972656 47.449219 199.113281 48.511719 C 200.125 49.453125 201.992188 49.839844 204 48.875 C 206.195312 47.820312 206.320312 45.625 206.6875 44.246094 C 207.535156 46.109375 208.320312 47.378906 209.007812 47.777344 C 211.441406 49.203125 213.449219 48.40625 214.867188 46.558594 C 217.664062 41.835938 215.777344 36.90625 213.15625 29.984375 Z M 185.765625 53.90625 C 186.65625 54.144531 187.269531 54.757812 187.128906 55.277344 C 186.992188 55.796875 186.15625 56.027344 185.261719 55.789062 C 184.371094 55.554688 183.757812 54.9375 183.898438 54.417969 C 184.035156 53.898438 184.875 53.667969 185.765625 53.90625 Z M 185.765625 53.90625 " fill-opacity="1" fill-rule="evenodd"/><path fill="#cda85e" d="M 214.988281 29.742188 C 214.207031 27.996094 213.003906 26.246094 211.082031 24.5 C 210.328125 25.09375 210.125 27.117188 210.226562 28.035156 C 210.628906 31.613281 212.636719 38.070312 214.867188 42.171875 C 215.683594 43.675781 211.476562 45.300781 209.617188 43.878906 C 207.921875 42.582031 208.097656 41.683594 208.152344 39.492188 C 206.15625 40.507812 204.285156 46.191406 200.457031 44.609375 C 198.898438 43.964844 198.585938 41.5625 199.601562 40.101562 C 192.449219 48.074219 188.886719 47.402344 185.679688 40.101562 C 185.230469 39.078125 178.617188 42.085938 179.207031 51.679688 C 171.5625 55.960938 162.8125 65.269531 159.136719 63.375 C 157.902344 62.738281 156.066406 60.320312 160.277344 50.339844 C 156.105469 56.167969 153.625 64.375 157.46875 66.792969 C 159.679688 68.179688 164.210938 67.375 167.117188 64.476562 C 174.984375 56.625 177.113281 55.347656 180.429688 55.335938 C 185.15625 64.253906 191.707031 59.191406 188.734375 52.53125 C 186.855469 48.324219 182.605469 52.046875 180.796875 50.339844 C 180.082031 46.578125 182.730469 44.59375 184.582031 44.246094 C 188.007812 52.164062 192.714844 50.867188 197.527344 44.367188 C 198.136719 46.441406 197.972656 47.449219 199.113281 48.511719 C 200.125 49.453125 201.992188 49.839844 204 48.875 C 206.195312 47.820312 206.320312 45.625 206.6875 44.246094 C 207.535156 46.109375 208.320312 47.378906 209.007812 47.777344 C 211.441406 49.203125 213.449219 48.40625 214.867188 46.558594 C 217.664062 41.835938 215.777344 36.90625 213.15625 29.984375 Z M 185.40625 40.238281 C 186.222656 42.09375 187.066406 43.527344 187.976562 44.511719 C 188.9375 45.542969 189.980469 46.089844 191.148438 46.132812 C 192.070312 46.171875 193.078125 45.890625 194.195312 45.265625 C 195.53125 44.515625 197.035156 43.261719 198.753906 41.464844 C 198.664062 42.078125 198.710938 42.707031 198.902344 43.265625 C 199.148438 43.996094 199.636719 44.601562 200.339844 44.890625 C 202.394531 45.742188 203.9375 44.679688 205.21875 43.226562 C 205.9375 42.414062 206.574219 41.488281 207.1875 40.761719 C 207.402344 40.503906 207.617188 40.273438 207.828125 40.085938 C 207.777344 41.980469 207.796875 42.871094 209.429688 44.121094 C 210.003906 44.558594 210.773438 44.742188 211.574219 44.730469 C 212.738281 44.714844 213.953125 44.285156 214.640625 43.707031 C 215.230469 43.210938 215.449219 42.605469 215.136719 42.027344 C 212.921875 37.957031 210.929688 31.550781 210.53125 28 C 210.472656 27.476562 210.519531 26.574219 210.722656 25.8125 C 210.8125 25.46875 210.929688 25.152344 211.09375 24.925781 C 212.71875 26.449219 213.800781 27.972656 214.539062 29.496094 L 213.117188 29.683594 C 213.023438 29.695312 212.945312 29.75 212.894531 29.828125 C 212.847656 29.910156 212.839844 30.007812 212.871094 30.09375 C 214.175781 33.53125 215.296875 36.476562 215.742188 39.144531 C 216.179688 41.753906 215.964844 44.097656 214.613281 46.390625 C 213.953125 47.246094 213.160156 47.863281 212.242188 48.097656 C 211.328125 48.335938 210.292969 48.179688 209.160156 47.515625 C 208.914062 47.371094 208.65625 47.097656 208.386719 46.71875 C 207.9375 46.101562 207.464844 45.214844 206.964844 44.117188 C 206.910156 44 206.789062 43.929688 206.660156 43.941406 C 206.53125 43.953125 206.421875 44.042969 206.390625 44.167969 C 206.246094 44.714844 206.140625 45.394531 205.921875 46.078125 C 205.621094 47.035156 205.09375 48.011719 203.867188 48.601562 C 202 49.5 200.261719 49.160156 199.320312 48.289062 C 198.800781 47.800781 198.578125 47.328125 198.417969 46.738281 C 198.238281 46.09375 198.125 45.320312 197.820312 44.28125 C 197.785156 44.167969 197.695312 44.085938 197.578125 44.066406 C 197.464844 44.046875 197.347656 44.09375 197.28125 44.1875 C 195.863281 46.101562 194.457031 47.558594 193.089844 48.449219 C 191.78125 49.300781 190.515625 49.621094 189.316406 49.289062 C 187.671875 48.832031 186.183594 47.175781 184.863281 44.125 C 184.804688 43.992188 184.664062 43.917969 184.523438 43.945312 C 182.5625 44.3125 179.738281 46.410156 180.496094 50.394531 C 180.507812 50.457031 180.539062 50.515625 180.585938 50.558594 C 181.003906 50.953125 181.53125 51.105469 182.128906 51.125 C 182.664062 51.136719 183.261719 51.039062 183.882812 50.9375 C 185.058594 50.742188 186.328125 50.5 187.34375 51.203125 C 187.769531 51.5 188.144531 51.960938 188.453125 52.65625 C 189.859375 55.800781 189.078125 58.578125 187.324219 59.503906 C 186.476562 59.953125 185.410156 59.945312 184.285156 59.328125 C 183.09375 58.675781 181.84375 57.351562 180.699219 55.191406 C 180.644531 55.09375 180.542969 55.03125 180.429688 55.03125 C 177.066406 55.042969 174.878906 56.296875 166.902344 64.261719 C 165.210938 65.949219 162.953125 66.90625 160.953125 67.109375 C 159.65625 67.242188 158.46875 67.058594 157.632812 66.535156 C 156.183594 65.621094 155.722656 63.824219 155.898438 61.660156 C 156.113281 59.078125 157.246094 55.984375 158.859375 53.132812 C 157.648438 56.53125 157.292969 58.824219 157.359375 60.375 C 157.457031 62.480469 158.324219 63.300781 159 63.648438 C 159.488281 63.898438 160.0625 63.980469 160.707031 63.90625 C 161.601562 63.800781 162.644531 63.390625 163.796875 62.761719 C 168.109375 60.402344 174.003906 54.941406 179.359375 51.945312 C 179.460938 51.886719 179.519531 51.777344 179.511719 51.660156 C 179.109375 45.121094 182.113281 41.710938 184.121094 40.605469 C 184.519531 40.382812 184.875 40.257812 185.144531 40.222656 C 185.226562 40.214844 185.300781 40.210938 185.363281 40.222656 C 185.375 40.226562 185.398438 40.234375 185.40625 40.238281 Z M 185.84375 53.609375 C 185.230469 53.449219 184.644531 53.488281 184.234375 53.667969 C 183.902344 53.8125 183.679688 54.050781 183.601562 54.339844 C 183.523438 54.632812 183.601562 54.949219 183.816406 55.238281 C 184.082031 55.597656 184.574219 55.921875 185.183594 56.085938 C 185.796875 56.246094 186.386719 56.207031 186.792969 56.03125 C 187.125 55.882812 187.347656 55.648438 187.425781 55.355469 C 187.503906 55.0625 187.429688 54.746094 187.210938 54.457031 C 186.949219 54.101562 186.457031 53.773438 185.84375 53.609375 Z M 185.765625 53.90625 C 186.65625 54.144531 187.269531 54.757812 187.128906 55.277344 C 186.992188 55.796875 186.15625 56.027344 185.261719 55.789062 C 184.371094 55.554688 183.757812 54.9375 183.898438 54.417969 C 184.035156 53.898438 184.875 53.667969 185.765625 53.90625 Z M 185.765625 53.90625 " fill-opacity="1" fill-rule="evenodd"/><path fill="#cda85e" d="M 41.515625 41.808594 C 40.167969 34.164062 42.136719 29.714844 50.125 31.0625 C 56.363281 32.117188 60.597656 34.902344 66.976562 34.738281 C 68.542969 34.699219 67.648438 36.742188 66.246094 38.636719 C 59.171875 39.34375 52.972656 45.257812 46.214844 46.683594 L 44.261719 46.804688 L 43.546875 48.386719 L 42.675781 46.804688 C 37.382812 45.625 36.113281 39.535156 33.546875 37.90625 C 29.503906 39.648438 29.578125 44.617188 31.316406 44.609375 C 36.132812 43.949219 38.027344 43.765625 38.859375 47.65625 C 39.078125 48.671875 39.226562 49.566406 38.859375 50.703125 C 37.09375 56.15625 33.367188 54.4375 29.972656 48.996094 C 24.859375 51.621094 20.28125 55.386719 15.738281 59.234375 C 11.976562 62.425781 6.789062 60.523438 6.40625 53.386719 C 6.558594 50.09375 7.675781 46.804688 10.191406 43.511719 C 4.316406 56.953125 8.941406 61.136719 17.394531 53.875 C 21.070312 50.714844 24.871094 47.769531 29.121094 45.585938 C 28.492188 42.230469 29.339844 39.070312 31.929688 35.226562 C 33.191406 33.171875 34.695312 33.136719 35.957031 35.226562 C 37.167969 37.980469 39.085938 40.269531 41.515625 41.808594 Z M 35.433594 47.933594 C 36.324219 48.171875 36.9375 48.785156 36.796875 49.304688 C 36.660156 49.824219 35.820312 50.054688 34.929688 49.816406 C 34.039062 49.582031 33.425781 48.96875 33.566406 48.445312 C 33.703125 47.925781 34.539062 47.695312 35.433594 47.933594 Z M 44.75 42.292969 C 49.941406 42.257812 54.773438 40.0625 59.527344 37.417969 C 52.339844 35.105469 44.753906 32.253906 42.675781 36.808594 C 41.914062 38.476562 43.84375 40.789062 44.75 42.292969 Z M 44.75 42.292969 " fill-opacity="1" fill-rule="evenodd"/><path fill="#cda85e" d="M 41.515625 41.808594 C 40.167969 34.164062 42.136719 29.714844 50.125 31.0625 C 56.363281 32.117188 60.597656 34.902344 66.976562 34.738281 C 68.542969 34.699219 67.648438 36.742188 66.246094 38.636719 C 59.171875 39.34375 52.972656 45.257812 46.214844 46.683594 L 44.261719 46.804688 L 43.546875 48.386719 L 42.675781 46.804688 C 37.382812 45.625 36.113281 39.535156 33.546875 37.90625 C 29.503906 39.648438 29.578125 44.617188 31.316406 44.609375 C 36.132812 43.949219 38.027344 43.765625 38.859375 47.65625 C 39.078125 48.671875 39.226562 49.566406 38.859375 50.703125 C 37.09375 56.15625 33.367188 54.4375 29.972656 48.996094 C 24.859375 51.621094 20.28125 55.386719 15.738281 59.234375 C 11.976562 62.425781 6.789062 60.523438 6.40625 53.386719 C 6.558594 50.09375 7.675781 46.804688 10.191406 43.511719 C 4.316406 56.953125 8.941406 61.136719 17.394531 53.875 C 21.070312 50.714844 24.871094 47.769531 29.121094 45.585938 C 28.492188 42.230469 29.339844 39.070312 31.929688 35.226562 C 33.191406 33.171875 34.695312 33.136719 35.957031 35.226562 C 37.167969 37.980469 39.085938 40.269531 41.515625 41.808594 Z M 41.351562 42.066406 C 41.453125 42.128906 41.585938 42.128906 41.6875 42.0625 C 41.785156 41.992188 41.835938 41.875 41.816406 41.753906 C 41.417969 39.5 41.3125 37.527344 41.574219 35.910156 C 41.824219 34.347656 42.417969 33.117188 43.445312 32.300781 C 44.835938 31.191406 46.992188 30.84375 50.074219 31.363281 C 53.179688 31.890625 55.785156 32.84375 58.410156 33.648438 C 61.074219 34.464844 63.757812 35.125 66.984375 35.042969 C 67.1875 35.039062 67.332031 35.066406 67.414062 35.15625 C 67.496094 35.242188 67.507812 35.371094 67.496094 35.527344 C 67.445312 36.226562 66.84375 37.300781 66.078125 38.347656 C 62.554688 38.734375 59.242188 40.378906 55.96875 42.121094 C 52.722656 43.847656 49.519531 45.667969 46.175781 46.378906 C 46.175781 46.378906 44.242188 46.5 44.242188 46.5 C 44.128906 46.507812 44.03125 46.574219 43.984375 46.679688 L 43.519531 47.707031 C 43.519531 47.707031 42.941406 46.65625 42.941406 46.65625 C 42.902344 46.582031 42.828125 46.527344 42.742188 46.507812 C 39.652344 45.816406 37.988281 43.394531 36.601562 41.238281 C 35.621094 39.714844 34.765625 38.320312 33.710938 37.648438 C 33.625 37.597656 33.519531 37.585938 33.425781 37.628906 C 30.425781 38.917969 29.585938 41.898438 29.96875 43.5625 C 30.164062 44.402344 30.667969 44.917969 31.320312 44.914062 C 31.332031 44.914062 31.347656 44.914062 31.359375 44.914062 C 33.023438 44.683594 34.332031 44.511719 35.367188 44.550781 C 36.320312 44.585938 37.027344 44.800781 37.546875 45.363281 C 38.011719 45.863281 38.324219 46.621094 38.558594 47.722656 C 38.765625 48.683594 38.917969 49.53125 38.570312 50.609375 C 37.914062 52.628906 37.015625 53.621094 35.917969 53.722656 C 35.269531 53.78125 34.566406 53.523438 33.835938 53.015625 C 32.660156 52.199219 31.429688 50.753906 30.234375 48.835938 C 30.148438 48.703125 29.976562 48.652344 29.835938 48.726562 C 24.699219 51.359375 20.101562 55.136719 15.542969 59.003906 C 13.765625 60.507812 11.660156 60.828125 9.949219 59.914062 C 8.207031 58.984375 6.898438 56.804688 6.710938 53.382812 C 6.824219 50.996094 7.457031 48.609375 8.777344 46.222656 C 7.773438 48.996094 7.292969 51.277344 7.253906 53.042969 C 7.214844 54.675781 7.554688 55.878906 8.183594 56.648438 C 8.835938 57.453125 9.804688 57.8125 11.03125 57.683594 C 12.742188 57.5 14.996094 56.335938 17.59375 54.105469 C 21.253906 50.960938 25.035156 48.027344 29.257812 45.855469 C 29.378906 45.796875 29.445312 45.660156 29.417969 45.53125 C 28.804688 42.246094 29.648438 39.15625 32.183594 35.394531 C 32.183594 35.394531 32.1875 35.390625 32.1875 35.386719 C 32.746094 34.476562 33.332031 33.980469 33.945312 33.976562 C 34.550781 33.972656 35.132812 34.457031 35.6875 35.367188 C 36.921875 38.171875 38.878906 40.5 41.351562 42.066406 Z M 35.511719 47.640625 C 34.898438 47.476562 34.3125 47.515625 33.902344 47.695312 C 33.570312 47.839844 33.347656 48.078125 33.269531 48.367188 C 33.191406 48.660156 33.265625 48.976562 33.484375 49.269531 C 33.75 49.625 34.238281 49.949219 34.851562 50.113281 C 35.464844 50.277344 36.050781 50.234375 36.460938 50.058594 C 36.792969 49.914062 37.015625 49.675781 37.09375 49.382812 C 37.171875 49.09375 37.097656 48.777344 36.878906 48.484375 C 36.613281 48.128906 36.125 47.800781 35.511719 47.640625 Z M 35.433594 47.933594 C 36.324219 48.171875 36.9375 48.785156 36.796875 49.304688 C 36.660156 49.824219 35.820312 50.054688 34.929688 49.816406 C 34.039062 49.582031 33.425781 48.96875 33.566406 48.445312 C 33.703125 47.925781 34.539062 47.695312 35.433594 47.933594 Z M 44.488281 42.453125 C 44.546875 42.542969 44.644531 42.601562 44.753906 42.601562 C 49.996094 42.5625 54.875 40.355469 59.675781 37.6875 C 59.78125 37.628906 59.84375 37.511719 59.832031 37.390625 C 59.820312 37.269531 59.738281 37.167969 59.621094 37.128906 C 55.277344 35.730469 50.789062 34.144531 47.441406 34.085938 C 45.085938 34.042969 43.28125 34.75 42.398438 36.683594 C 42.058594 37.421875 42.179688 38.277344 42.53125 39.144531 C 43.015625 40.328125 43.9375 41.539062 44.488281 42.453125 Z M 44.75 42.292969 C 49.941406 42.257812 54.773438 40.0625 59.527344 37.417969 C 52.339844 35.105469 44.753906 32.253906 42.675781 36.808594 C 41.914062 38.476562 43.84375 40.789062 44.75 42.292969 Z M 44.75 42.292969 " fill-opacity="1" fill-rule="evenodd"/><path fill="#cda85e" d="M 96.480469 29.917969 C 96.726562 28.9375 98.238281 27.664062 100.4375 27.058594 C 102.246094 26.566406 117.617188 27.59375 125.472656 30.714844 C 126.730469 31.21875 125.898438 33.324219 124.742188 34.371094 L 109.585938 40.734375 L 109.609375 40.765625 C 109.898438 41.171875 110.171875 41.585938 110.421875 42.015625 C 110.605469 42.332031 110.773438 42.652344 110.921875 42.988281 C 110.992188 43.140625 111.054688 43.296875 111.113281 43.453125 C 111.15625 43.574219 111.195312 43.699219 111.234375 43.824219 C 111.257812 43.917969 111.285156 44.015625 111.304688 44.109375 C 111.320312 44.191406 111.335938 44.269531 111.347656 44.351562 C 111.410156 44.796875 111.390625 45.285156 111.128906 45.667969 C 111.085938 45.726562 111.042969 45.785156 110.988281 45.835938 C 110.917969 45.910156 110.832031 45.976562 110.742188 46.03125 C 110.609375 46.109375 110.460938 46.167969 110.308594 46.203125 C 110.09375 46.253906 109.875 46.269531 109.65625 46.257812 C 109.339844 46.242188 109.027344 46.175781 108.726562 46.074219 C 108.253906 45.921875 107.808594 45.691406 107.398438 45.40625 C 106.75 44.953125 106.191406 44.363281 105.792969 43.675781 C 105.65625 43.4375 105.539062 43.1875 105.441406 42.929688 L 105.429688 42.90625 L 105.203125 43.027344 C 101.515625 45.183594 97.71875 46.625 93.601562 46.074219 C 93.597656 50.046875 93.636719 53.265625 92.257812 54.847656 C 76.988281 72.328125 54.226562 67.691406 61.96875 45.707031 C 56.925781 61.84375 70.71875 66.660156 89.976562 54.359375 C 91.605469 52.871094 92.488281 51.152344 92.378906 49.121094 C 91.957031 45.390625 87.859375 43.273438 91.402344 39.371094 C 91.859375 43.546875 96.683594 42.480469 103.050781 40.058594 C 97.390625 36.8125 94.171875 34.023438 96.480469 29.917969 Z M 107.121094 38.4375 C 111.222656 36.761719 115.667969 34.886719 119.855469 33.640625 C 114.429688 31.730469 104.929688 30.691406 97.835938 31.199219 L 97.753906 31.203125 C 101.671875 34.140625 105.84375 36.605469 107.121094 38.4375 Z M 107.121094 38.4375 " fill-opacity="1" fill-rule="evenodd"/><path fill="#cda85e" d="M 105.164062 43.050781 C 105.15625 43.039062 105.148438 43.023438 105.144531 43.011719 L 105.179688 43.039062 L 105.183594 43.039062 L 105.144531 43.011719 C 105.140625 43 105.136719 42.988281 105.132812 42.976562 C 105.101562 42.84375 105.164062 42.699219 105.289062 42.636719 L 105.058594 42.757812 C 105.054688 42.757812 105.050781 42.761719 105.046875 42.761719 C 101.425781 44.886719 97.691406 46.3125 93.640625 45.769531 C 93.554688 45.757812 93.464844 45.785156 93.398438 45.84375 C 93.332031 45.902344 93.292969 45.984375 93.292969 46.074219 C 93.292969 48.4375 93.308594 50.535156 93.023438 52.167969 C 92.84375 53.207031 92.546875 54.050781 92.027344 54.648438 C 86.585938 60.875 80.191406 64.273438 74.585938 65.046875 C 70.890625 65.558594 67.546875 64.929688 65.0625 63.207031 C 62.292969 61.285156 60.617188 58.007812 60.714844 53.476562 C 61.039062 56.109375 62.160156 58.136719 63.914062 59.507812 C 65.859375 61.023438 68.597656 61.742188 71.945312 61.566406 C 76.875 61.300781 83.152344 59.082031 90.144531 54.617188 C 90.15625 54.609375 90.171875 54.597656 90.183594 54.585938 C 91.886719 53.027344 92.796875 51.226562 92.683594 49.101562 C 92.683594 49.097656 92.683594 49.09375 92.683594 49.085938 C 92.511719 47.554688 91.742188 46.285156 91.105469 45.0625 C 90.578125 44.046875 90.136719 43.070312 90.316406 41.96875 C 90.414062 41.375 90.6875 40.75 91.214844 40.066406 C 91.414062 40.859375 91.800781 41.433594 92.339844 41.828125 C 93.003906 42.3125 93.910156 42.519531 95.015625 42.492188 C 97.101562 42.445312 99.9375 41.570312 103.160156 40.34375 C 103.269531 40.300781 103.34375 40.199219 103.355469 40.082031 C 103.363281 39.964844 103.304688 39.851562 103.203125 39.792969 C 100.964844 38.511719 99.113281 37.300781 97.84375 36.050781 C 96.929688 35.152344 96.320312 34.234375 96.113281 33.242188 C 95.90625 32.265625 96.097656 31.222656 96.75 30.070312 C 96.761719 30.046875 96.773438 30.019531 96.777344 29.992188 C 96.863281 29.644531 97.140625 29.261719 97.550781 28.886719 C 98.222656 28.277344 99.253906 27.703125 100.519531 27.355469 C 101.050781 27.207031 102.777344 27.207031 105.140625 27.34375 C 110.746094 27.671875 119.886719 28.824219 125.359375 31 C 125.726562 31.144531 125.828125 31.492188 125.789062 31.886719 C 125.71875 32.625 125.199219 33.53125 124.574219 34.113281 C 124.574219 34.113281 109.46875 40.453125 109.46875 40.453125 C 109.335938 40.507812 109.257812 40.652344 109.289062 40.792969 C 109.296875 40.839844 109.316406 40.878906 109.339844 40.914062 L 109.363281 40.945312 C 109.644531 41.339844 109.914062 41.746094 110.15625 42.167969 C 110.335938 42.472656 110.5 42.789062 110.644531 43.109375 C 110.710938 43.257812 110.769531 43.40625 110.824219 43.558594 C 110.867188 43.671875 110.90625 43.789062 110.9375 43.90625 C 110.964844 43.996094 110.984375 44.085938 111.003906 44.171875 C 111.019531 44.246094 111.035156 44.320312 111.046875 44.394531 C 111.097656 44.765625 111.09375 45.175781 110.875 45.496094 C 110.84375 45.542969 110.8125 45.582031 110.773438 45.621094 C 110.714844 45.679688 110.652344 45.726562 110.585938 45.769531 C 110.476562 45.832031 110.359375 45.878906 110.238281 45.90625 C 110.050781 45.953125 109.859375 45.960938 109.671875 45.953125 C 109.382812 45.9375 109.097656 45.875 108.820312 45.785156 C 108.375 45.640625 107.957031 45.421875 107.574219 45.15625 C 106.960938 44.726562 106.433594 44.171875 106.058594 43.523438 C 105.929688 43.296875 105.816406 43.0625 105.726562 42.820312 C 105.761719 42.914062 105.75 43.019531 105.691406 43.101562 C 105.65625 43.152344 105.609375 43.1875 105.554688 43.210938 C 105.628906 43.371094 105.707031 43.523438 105.792969 43.675781 C 106.191406 44.363281 106.75 44.953125 107.398438 45.40625 C 107.808594 45.691406 108.253906 45.921875 108.726562 46.074219 C 109.027344 46.175781 109.339844 46.242188 109.65625 46.257812 C 109.875 46.269531 110.09375 46.253906 110.308594 46.203125 C 110.460938 46.167969 110.609375 46.109375 110.742188 46.03125 C 110.832031 45.976562 110.917969 45.910156 110.988281 45.835938 C 111.042969 45.785156 111.085938 45.726562 111.128906 45.667969 C 111.390625 45.285156 111.410156 44.796875 111.347656 44.351562 C 111.335938 44.269531 111.320312 44.191406 111.304688 44.109375 C 111.285156 44.015625 111.257812 43.917969 111.234375 43.824219 C 111.195312 43.699219 111.15625 43.574219 111.113281 43.453125 C 111.054688 43.296875 110.992188 43.140625 110.921875 42.988281 C 110.773438 42.652344 110.605469 42.332031 110.421875 42.015625 C 110.171875 41.585938 109.898438 41.171875 109.609375 40.765625 L 109.585938 40.734375 L 124.742188 34.371094 C 125.898438 33.324219 126.730469 31.21875 125.472656 30.714844 C 117.617188 27.59375 102.246094 26.566406 100.4375 27.058594 C 98.238281 27.664062 96.726562 28.9375 96.480469 29.917969 C 94.171875 34.023438 97.390625 36.8125 103.050781 40.058594 C 96.683594 42.480469 91.859375 43.546875 91.402344 39.371094 C 87.859375 43.273438 91.957031 45.390625 92.378906 49.121094 C 92.488281 51.152344 91.605469 52.871094 89.976562 54.359375 C 70.71875 66.660156 56.925781 61.84375 61.96875 45.707031 C 54.226562 67.691406 76.988281 72.328125 92.257812 54.847656 C 93.636719 53.269531 93.597656 50.046875 93.601562 46.074219 C 97.703125 46.625 101.488281 45.195312 105.164062 43.050781 Z M 105.546875 43.1875 L 105.542969 43.183594 L 105.574219 43.175781 Z M 105.480469 43.035156 C 105.542969 42.847656 105.644531 42.597656 105.71875 42.800781 C 105.738281 42.851562 105.613281 43.023438 105.523438 43.132812 L 105.515625 43.121094 C 105.511719 43.105469 105.503906 43.089844 105.496094 43.074219 Z M 106.871094 38.613281 C 106.949219 38.730469 107.101562 38.773438 107.234375 38.71875 C 111.328125 37.046875 115.765625 35.175781 119.945312 33.933594 C 120.070312 33.894531 120.160156 33.78125 120.160156 33.648438 C 120.164062 33.515625 120.082031 33.398438 119.957031 33.355469 C 114.503906 31.433594 104.945312 30.386719 97.8125 30.894531 L 97.730469 30.898438 C 97.601562 30.910156 97.496094 30.996094 97.460938 31.117188 C 97.421875 31.242188 97.46875 31.371094 97.570312 31.449219 C 99.921875 33.210938 102.363281 34.800781 104.214844 36.1875 C 105.417969 37.089844 106.371094 37.898438 106.871094 38.613281 Z M 107.121094 38.4375 C 111.222656 36.761719 115.667969 34.886719 119.855469 33.640625 C 114.429688 31.730469 104.929688 30.691406 97.835938 31.199219 L 97.753906 31.203125 C 101.671875 34.140625 105.84375 36.605469 107.121094 38.4375 Z M 107.121094 38.4375 " fill-opacity="1" fill-rule="evenodd"/></svg>